<svg width="163" height="163" viewBox="0 0 163 163" fill="none" xmlns="http://www.w3.org/2000/svg">
<path d="M45.8438 63.6719H40.75V68.7656H45.8438V63.6719Z" fill="white"/>
<path d="M71.3125 63.6719H66.2188V68.7656H71.3125V63.6719Z" fill="white"/>
<path d="M155.721 91.7129L145.771 90.2917C145.297 88.9002 144.738 87.5393 144.097 86.2167L150.118 78.189C150.486 77.6985 150.664 77.0919 150.621 76.4804C150.577 75.8689 150.315 75.2937 149.881 74.8602L139.075 64.0538C138.66 63.6416 138.114 63.3868 137.531 63.333V38.8168C139.914 36.909 141.838 34.4901 143.161 31.7388C144.483 28.9876 145.171 25.9744 145.172 22.9218C145.195 19.0619 144.11 15.2765 142.046 12.0151C139.981 8.75372 137.024 6.15345 133.525 4.52316C133.137 4.33988 132.709 4.25766 132.28 4.28415C131.852 4.31064 131.437 4.44498 131.075 4.67468C130.712 4.90439 130.413 5.222 130.206 5.59803C129.999 5.97406 129.891 6.3963 129.891 6.82553V21.088L124.797 22.7868L119.703 21.088V6.82553C119.701 6.39716 119.592 5.97618 119.384 5.60152C119.176 5.22687 118.877 4.91065 118.515 4.68213C118.153 4.45362 117.739 4.32018 117.311 4.29417C116.883 4.26816 116.456 4.35043 116.069 4.53334C112.572 6.16291 109.616 8.7616 107.551 12.021C105.487 15.2804 104.401 19.0637 104.422 22.9218C104.424 25.9744 105.111 28.9876 106.433 31.7388C107.756 34.4901 109.68 36.909 112.063 38.8168V56.0312H104.422C103.809 56.0311 103.217 56.252 102.754 56.6534C102.291 57.0548 101.988 57.6097 101.901 58.2164L100.253 69.7512L105.296 70.4719L106.63 61.1249H117.495L118.83 70.4719C118.899 70.9562 119.107 71.4102 119.427 71.7796C119.748 72.1491 120.168 72.4184 120.638 72.5553C122.761 73.1686 124.81 74.0115 126.75 75.069C127.18 75.3044 127.668 75.4111 128.156 75.3763C128.644 75.3415 129.112 75.1667 129.504 74.8729L137.045 69.2189L144.726 76.9002L139.06 84.4415C138.766 84.8331 138.591 85.301 138.556 85.7893C138.521 86.2775 138.628 86.7655 138.863 87.1947C139.921 89.1348 140.764 91.1844 141.377 93.3072C141.514 93.7769 141.783 94.1972 142.153 94.5178C142.522 94.8385 142.976 95.046 143.461 95.1155L152.808 96.4501V107.315L143.461 108.65C142.976 108.719 142.522 108.927 142.153 109.247C141.783 109.568 141.514 109.988 141.377 110.458C140.764 112.581 139.921 114.63 138.863 116.57C138.628 117 138.521 117.488 138.556 117.976C138.591 118.464 138.766 118.932 139.06 119.324L144.714 126.865L137.032 134.546L129.496 128.872C129.104 128.578 128.637 128.403 128.148 128.368C127.66 128.334 127.172 128.44 126.743 128.676C124.803 129.733 122.753 130.576 120.63 131.189C120.161 131.326 119.74 131.596 119.42 131.965C119.099 132.335 118.892 132.789 118.822 133.273L117.495 142.625H106.969V131.854C106.967 129.164 106.581 126.487 105.823 123.905C110.674 125.326 115.856 125.123 120.581 123.328C125.307 121.533 129.316 118.243 132.001 113.961C134.686 109.678 135.898 104.635 135.454 99.6C135.01 94.5648 132.934 89.8123 129.541 86.0653C126.149 82.3182 121.625 79.7816 116.659 78.8411C111.692 77.9006 106.555 78.6077 102.027 80.8548C97.499 83.102 93.829 86.7663 91.5747 91.2906C89.3205 95.8148 88.6053 100.951 89.5381 105.919C89.477 105.894 89.4184 105.863 89.3573 105.84L68.7658 97.6038V93.6892C72.1691 91.9481 75.1835 89.5342 77.6264 86.5937H84.047C86.0734 86.5937 88.0169 85.7887 89.4498 84.3558C90.8827 82.9229 91.6876 80.9794 91.6876 78.953V73.3907C93.1722 72.8658 94.4584 71.8951 95.3702 70.6112C96.282 69.3274 96.7749 67.7933 96.7814 66.2187V58.578C96.7749 57.0034 96.282 55.4692 95.3702 54.1854C94.4584 52.9016 93.1722 51.9309 91.6876 51.406V48.3905C91.6876 38.9339 87.931 29.8646 81.2442 23.1778C74.5573 16.4909 65.488 12.7343 56.0314 12.7343C46.5748 12.7343 37.5055 16.4909 30.8186 23.1778C24.1318 29.8646 20.3751 38.9339 20.3751 48.3905V51.406C18.8905 51.9309 17.6044 52.9016 16.6926 54.1854C15.7808 55.4692 15.2879 57.0034 15.2814 58.578V66.2187C15.2814 68.2451 16.0864 70.1885 17.5193 71.6214C18.9522 73.0543 20.8956 73.8593 22.922 73.8593H28.0158C28.1788 73.8593 28.3367 73.8338 28.4971 73.8236C29.2802 78.0463 31.0216 82.0331 33.5874 85.4771C36.1532 88.9211 39.475 91.7306 43.297 93.6892V97.6038L22.7055 105.84C17.4961 107.905 13.0295 111.491 9.888 116.131C6.74651 120.772 5.07588 126.251 5.09389 131.854V155.359C5.09389 156.035 5.36222 156.683 5.83986 157.16C6.31749 157.638 6.9653 157.906 7.64077 157.906H104.422C105.097 157.906 105.745 157.638 106.223 157.16C106.701 156.683 106.969 156.035 106.969 155.359V147.719H119.703C120.316 147.719 120.908 147.498 121.372 147.096C121.835 146.695 122.138 146.14 122.225 145.533L123.646 135.583C125.037 135.11 126.398 134.551 127.721 133.91L135.749 139.93C136.239 140.298 136.846 140.477 137.457 140.433C138.069 140.39 138.644 140.127 139.077 139.693L149.884 128.887C150.317 128.454 150.58 127.878 150.623 127.267C150.667 126.655 150.488 126.049 150.121 125.558L144.1 117.531C144.741 116.208 145.3 114.847 145.773 113.456L155.724 112.034C156.329 111.947 156.883 111.644 157.284 111.182C157.685 110.719 157.906 110.128 157.906 109.516V94.2343C157.906 93.6214 157.686 93.0291 157.284 92.5659C156.883 92.1028 156.328 91.7999 155.721 91.7129ZM127.706 69.8403C127.586 69.7817 127.451 69.7435 127.331 69.6875V38.203H122.25V58.3997L122.225 58.2164C122.138 57.6097 121.835 57.0548 121.372 56.6534C120.908 56.252 120.316 56.0311 119.703 56.0312H117.156V37.5408C117.156 37.13 117.057 36.7253 116.867 36.3612C116.677 35.9971 116.401 35.6844 116.064 35.4499C114.171 34.1318 112.6 32.4021 111.471 30.3907C110.341 28.3792 109.682 26.1381 109.542 23.8355C109.402 21.5328 109.785 19.2284 110.663 17.095C111.541 14.9615 112.89 13.0545 114.61 11.5169V22.9218C114.609 23.4565 114.778 23.9778 115.09 24.4116C115.403 24.8454 115.844 25.1698 116.352 25.3388L123.992 27.8856C124.515 28.0596 125.079 28.0596 125.602 27.8856L133.242 25.3388C133.75 25.1698 134.191 24.8454 134.504 24.4116C134.816 23.9778 134.985 23.4565 134.985 22.9218V11.5169C136.706 13.0545 138.056 14.9619 138.935 17.0961C139.813 19.2303 140.197 21.5358 140.057 23.8395C139.917 26.1432 139.257 28.3852 138.127 30.3974C136.996 32.4096 135.425 34.1395 133.53 35.4575C133.194 35.6913 132.919 36.0028 132.729 36.3655C132.539 36.7281 132.439 37.1313 132.438 37.5408V66.3027L127.706 69.8403ZM94.2345 101.875C94.2065 97.8926 95.5032 94.014 97.9205 90.8492C100.338 87.6844 103.739 85.4131 107.588 84.3926C111.438 83.3721 115.517 83.6602 119.185 85.2118C122.853 86.7633 125.901 89.4901 127.849 92.9633C129.798 96.4364 130.536 100.459 129.949 104.398C129.361 108.336 127.481 111.968 124.603 114.721C121.726 117.475 118.015 119.193 114.054 119.607C110.093 120.02 106.107 119.105 102.723 117.006C100.963 114.185 98.7103 111.704 96.0734 109.679C94.8617 107.256 94.232 104.584 94.2345 101.875ZM84.047 81.4999H80.9551C82.1963 79.0827 83.0759 76.4964 83.5657 73.8236C83.7261 73.8236 83.884 73.8593 84.047 73.8593H86.5939V78.953C86.5939 79.6285 86.3256 80.2763 85.8479 80.7539C85.3703 81.2316 84.7225 81.4999 84.047 81.4999ZM78.9533 53.4843C77.7676 53.4813 76.5988 53.2039 75.5383 52.6736C74.4778 52.1434 73.5545 51.3748 72.8408 50.428L68.2564 44.3155C68.0517 44.0426 67.7943 43.8137 67.4994 43.6422C67.2045 43.4706 66.8782 43.3601 66.5398 43.3172C66.2013 43.2756 65.8579 43.3017 65.5295 43.3939C65.2012 43.4862 64.8944 43.6428 64.6271 43.8545L56.0798 50.6827C53.8246 52.4874 51.0245 53.4749 48.1361 53.4843H33.1095V50.9374C33.1095 44.8581 35.5245 39.0279 39.8232 34.7292C44.1219 30.4305 49.9521 28.0155 56.0314 28.0155C62.1107 28.0155 67.9409 30.4305 72.2396 34.7292C76.5383 39.0279 78.9533 44.8581 78.9533 50.9374V53.4843ZM91.6876 66.2187C91.6876 66.8941 91.4193 67.5419 90.9417 68.0196C90.4641 68.4972 89.8162 68.7655 89.1408 68.7655H84.047V56.0312H89.1408C89.8162 56.0312 90.4641 56.2995 90.9417 56.7771C91.4193 57.2547 91.6876 57.9026 91.6876 58.578V66.2187ZM56.0314 17.828C64.1344 17.8368 71.903 21.0596 77.6327 26.7893C83.3624 32.5189 86.5851 40.2875 86.5939 48.3905V50.9374H84.047C84.047 43.5072 81.0954 36.3813 75.8414 31.1274C70.5875 25.8734 63.4616 22.9218 56.0314 22.9218C48.6012 22.9218 41.4753 25.8734 36.2214 31.1274C30.9674 36.3813 28.0158 43.5072 28.0158 50.9374H25.4689V48.3905C25.4777 40.2875 28.7004 32.5189 34.4301 26.7893C40.1598 21.0596 47.9284 17.8368 56.0314 17.828ZM22.922 68.7655C22.2465 68.7655 21.5987 68.4972 21.1211 68.0196C20.6435 67.5419 20.3751 66.8941 20.3751 66.2187V58.578C20.3751 57.9026 20.6435 57.2547 21.1211 56.7771C21.5987 56.2995 22.2465 56.0312 22.922 56.0312H28.0158V68.7655H22.922ZM33.1095 68.7655V58.578H48.1361C52.1828 58.5726 56.1081 57.1954 59.271 54.6711L65.7681 49.4729L68.7658 53.4843C69.9553 55.0622 71.4942 56.3432 73.2616 57.2269C75.0291 58.1107 76.9772 58.5731 78.9533 58.578V68.7655C78.9574 73.3015 77.6077 77.7355 75.0769 81.4999H56.0314V86.5937H70.406C67.0425 89.3132 62.9776 91.0245 58.6819 91.5294C54.3861 92.0344 50.0352 91.3124 46.1328 89.447C42.2304 87.5816 38.9361 84.6491 36.6313 80.989C34.3265 77.3289 33.1054 73.0909 33.1095 68.7655ZM56.0314 96.7812C58.6162 96.7748 61.1876 96.4097 63.672 95.6962V99.328C63.672 101.354 62.867 103.298 61.4341 104.731C60.0012 106.164 58.0578 106.969 56.0314 106.969C54.005 106.969 52.0616 106.164 50.6287 104.731C49.1958 103.298 48.3908 101.354 48.3908 99.328V95.6962C50.8752 96.4097 53.4466 96.7748 56.0314 96.7812ZM101.875 152.812H86.5939V124.797H81.5001V152.812H30.5626V124.797H25.4689V152.812H10.1876V131.854C10.1728 127.269 11.5397 122.786 14.1102 118.99C16.6806 115.193 20.3354 112.259 24.5979 110.57L43.8599 102.866C44.612 105.514 46.2074 107.845 48.4039 109.504C50.6005 111.164 53.2784 112.062 56.0314 112.062C58.7844 112.062 61.4623 111.164 63.6589 109.504C65.8554 107.845 67.4508 105.514 68.2029 102.866L87.4649 110.57C91.7274 112.259 95.3821 115.193 97.9526 118.99C100.523 122.786 101.89 127.269 101.875 131.854V152.812Z" fill="white"/>
<path d="M114.609 66.2188H109.516V71.3125H114.609V66.2188Z" fill="white"/>
<path d="M114.609 132.438H109.516V137.531H114.609V132.438Z" fill="white"/>
<path d="M135.473 121.686L131.871 125.287L135.473 128.889L139.075 125.287L135.473 121.686Z" fill="white"/>
<path d="M147.719 99.3281H142.625V104.422H147.719V99.3281Z" fill="white"/>
<path d="M135.473 74.8625L131.871 78.4644L135.473 82.0662L139.075 78.4644L135.473 74.8625Z" fill="white"/>
</svg>
