<svg width="38" height="51" viewBox="0 0 38 51" fill="none" xmlns="http://www.w3.org/2000/svg">
<path d="M37.16 46.392V51H1.808V47.328L22.76 26.808C25.4 24.216 27.176 21.984 28.088 20.112C29.048 18.192 29.528 16.272 29.528 14.352C29.528 11.376 28.496 9.072 26.432 7.44C24.416 5.76 21.512 4.92 17.72 4.92C11.816 4.92 7.232 6.792 3.968 10.536L0.296 7.368C2.264 5.064 4.76 3.288 7.784 2.04C10.856 0.791998 14.312 0.167998 18.152 0.167998C23.288 0.167998 27.344 1.392 30.32 3.84C33.344 6.24 34.856 9.552 34.856 13.776C34.856 16.368 34.28 18.864 33.128 21.264C31.976 23.664 29.792 26.424 26.576 29.544L9.44 46.392H37.16Z" fill="black"/>
</svg>
