<svg width="38" height="52" viewBox="0 0 38 52" fill="none" xmlns="http://www.w3.org/2000/svg">
<path d="M20.88 22.2C26.16 22.488 30.168 23.928 32.904 26.52C35.688 29.064 37.08 32.4 37.08 36.528C37.08 39.408 36.384 41.976 34.992 44.232C33.6 46.44 31.536 48.192 28.8 49.488C26.064 50.784 22.728 51.432 18.792 51.432C15.144 51.432 11.688 50.856 8.424 49.704C5.208 48.504 2.616 46.92 0.648 44.952L3.168 40.848C4.848 42.576 7.08 43.992 9.864 45.096C12.648 46.152 15.624 46.68 18.792 46.68C22.92 46.68 26.112 45.792 28.368 44.016C30.624 42.192 31.752 39.696 31.752 36.528C31.752 33.408 30.624 30.96 28.368 29.184C26.112 27.408 22.704 26.52 18.144 26.52H14.544V22.704L28.512 5.208H2.736V0.599997H35.136V4.272L20.88 22.2Z" fill="black"/>
</svg>
