<svg width="168" height="165" viewBox="0 0 168 165" fill="none" xmlns="http://www.w3.org/2000/svg">
<path d="M29.366 16.7795C22.4276 16.7795 16.7812 22.4259 16.7812 29.3643C16.7812 36.3027 22.4276 41.949 29.366 41.949C36.3044 41.949 41.9507 36.3027 41.9507 29.3643C41.9507 22.4259 36.3044 16.7795 29.366 16.7795ZM29.366 36.3558C25.5123 36.3558 22.3745 33.2208 22.3745 29.3643C22.3745 25.5078 25.5123 22.3728 29.366 22.3728C33.2197 22.3728 36.3575 25.5078 36.3575 29.3643C36.3575 33.2208 33.2197 36.3558 29.366 36.3558Z" fill="white"/>
<path d="M139.832 27.966C141.376 27.966 142.628 26.7139 142.628 25.1694C142.628 23.6249 141.376 22.3728 139.832 22.3728C138.287 22.3728 137.035 23.6249 137.035 25.1694C137.035 26.7139 138.287 27.966 139.832 27.966Z" fill="white"/>
<path d="M128.644 27.966C130.189 27.966 131.441 26.7139 131.441 25.1694C131.441 23.6249 130.189 22.3728 128.644 22.3728C127.1 22.3728 125.848 23.6249 125.848 25.1694C125.848 26.7139 127.1 27.966 128.644 27.966Z" fill="white"/>
<path d="M145.426 36.3559C146.97 36.3559 148.222 35.1038 148.222 33.5593C148.222 32.0148 146.97 30.7627 145.426 30.7627C143.881 30.7627 142.629 32.0148 142.629 33.5593C142.629 35.1038 143.881 36.3559 145.426 36.3559Z" fill="white"/>
<path d="M134.238 36.3559C135.783 36.3559 137.035 35.1038 137.035 33.5593C137.035 32.0148 135.783 30.7627 134.238 30.7627C132.693 30.7627 131.441 32.0148 131.441 33.5593C131.441 35.1038 132.693 36.3559 134.238 36.3559Z" fill="white"/>
<path d="M117.457 27.966C119.001 27.966 120.253 26.7139 120.253 25.1694C120.253 23.6249 119.001 22.3728 117.457 22.3728C115.912 22.3728 114.66 23.6249 114.66 25.1694C114.66 26.7139 115.912 27.966 117.457 27.966Z" fill="white"/>
<path d="M123.051 36.3559C124.595 36.3559 125.847 35.1038 125.847 33.5593C125.847 32.0148 124.595 30.7627 123.051 30.7627C121.506 30.7627 120.254 32.0148 120.254 33.5593C120.254 35.1038 121.506 36.3559 123.051 36.3559Z" fill="white"/>
<path d="M106.269 27.966C107.814 27.966 109.066 26.7139 109.066 25.1694C109.066 23.6249 107.814 22.3728 106.269 22.3728C104.725 22.3728 103.473 23.6249 103.473 25.1694C103.473 26.7139 104.725 27.966 106.269 27.966Z" fill="white"/>
<path d="M111.863 36.3559C113.408 36.3559 114.66 35.1038 114.66 33.5593C114.66 32.0148 113.408 30.7627 111.863 30.7627C110.318 30.7627 109.066 32.0148 109.066 33.5593C109.066 35.1038 110.318 36.3559 111.863 36.3559Z" fill="white"/>
<path d="M95.0857 27.966C96.6302 27.966 97.8823 26.7139 97.8823 25.1694C97.8823 23.6249 96.6302 22.3728 95.0857 22.3728C93.5411 22.3728 92.2891 23.6249 92.2891 25.1694C92.2891 26.7139 93.5411 27.966 95.0857 27.966Z" fill="white"/>
<path d="M100.679 36.3559C102.224 36.3559 103.476 35.1038 103.476 33.5593C103.476 32.0148 102.224 30.7627 100.679 30.7627C99.1349 30.7627 97.8828 32.0148 97.8828 33.5593C97.8828 35.1038 99.1349 36.3559 100.679 36.3559Z" fill="white"/>
<path d="M167.797 45.842V12.8868C167.797 5.78059 162.016 0 154.91 0H12.8868C5.78059 0 0 5.78059 0 12.8868V45.8392C0 49.9475 1.96602 53.5691 4.96958 55.9294C1.96602 58.2925 0 61.9169 0 66.0224V98.9748C0 103.083 1.96602 106.705 4.96958 109.065C1.96602 111.428 0 115.053 0 119.158V152.11C0 159.219 5.78059 165 12.8868 165H154.907C162.013 165 167.794 159.219 167.794 152.113V119.158C167.794 115.05 165.828 111.428 162.824 109.068C165.831 106.707 167.797 103.083 167.797 98.9776V66.0224C167.797 61.9142 165.831 58.2925 162.827 55.9322C165.831 53.5719 167.797 49.9475 167.797 45.842ZM162.203 119.158V152.11C162.203 156.132 158.931 159.404 154.91 159.404H12.8868C8.86525 159.407 5.59322 156.135 5.59322 152.113V119.158C5.59322 115.136 8.86525 111.864 12.8868 111.864H154.907C158.931 111.864 162.203 115.136 162.203 119.158ZM162.203 66.0224V98.9748C162.203 102.996 158.931 106.268 154.91 106.268H12.8868C8.86525 106.271 5.59322 102.999 5.59322 98.9776V66.0224C5.59322 62.0008 8.86525 58.7288 12.8868 58.7288H154.907C158.931 58.7288 162.203 62.0008 162.203 66.0224ZM12.8868 53.1356C8.86525 53.1356 5.59322 49.8636 5.59322 45.842V12.8868C5.59322 8.86525 8.86525 5.59322 12.8868 5.59322H154.907C158.931 5.59322 162.203 8.86525 162.203 12.8868V45.8392C162.203 49.8608 158.931 53.1328 154.91 53.1328H12.8868V53.1356Z" fill="white"/>
<path d="M29.366 95.0848C36.3044 95.0848 41.9507 89.4384 41.9507 82.5C41.9507 75.5616 36.3044 69.9153 29.366 69.9153C22.4276 69.9153 16.7812 75.5616 16.7812 82.5C16.7812 89.4384 22.4276 95.0848 29.366 95.0848ZM29.366 75.5085C33.2197 75.5085 36.3575 78.6435 36.3575 82.5C36.3575 86.3566 33.2197 89.4916 29.366 89.4916C25.5123 89.4916 22.3745 86.3566 22.3745 82.5C22.3745 78.6435 25.5123 75.5085 29.366 75.5085Z" fill="white"/>
<path d="M139.832 81.1018C141.376 81.1018 142.628 79.8497 142.628 78.3052C142.628 76.7606 141.376 75.5085 139.832 75.5085C138.287 75.5085 137.035 76.7606 137.035 78.3052C137.035 79.8497 138.287 81.1018 139.832 81.1018Z" fill="white"/>
<path d="M128.644 81.1018C130.189 81.1018 131.441 79.8497 131.441 78.3052C131.441 76.7606 130.189 75.5085 128.644 75.5085C127.1 75.5085 125.848 76.7606 125.848 78.3052C125.848 79.8497 127.1 81.1018 128.644 81.1018Z" fill="white"/>
<path d="M145.426 89.4914C146.97 89.4914 148.222 88.2393 148.222 86.6948C148.222 85.1503 146.97 83.8982 145.426 83.8982C143.881 83.8982 142.629 85.1503 142.629 86.6948C142.629 88.2393 143.881 89.4914 145.426 89.4914Z" fill="white"/>
<path d="M134.238 89.4914C135.783 89.4914 137.035 88.2393 137.035 86.6948C137.035 85.1503 135.783 83.8982 134.238 83.8982C132.693 83.8982 131.441 85.1503 131.441 86.6948C131.441 88.2393 132.693 89.4914 134.238 89.4914Z" fill="white"/>
<path d="M117.457 81.1018C119.001 81.1018 120.253 79.8497 120.253 78.3052C120.253 76.7606 119.001 75.5085 117.457 75.5085C115.912 75.5085 114.66 76.7606 114.66 78.3052C114.66 79.8497 115.912 81.1018 117.457 81.1018Z" fill="white"/>
<path d="M123.051 89.4914C124.595 89.4914 125.847 88.2393 125.847 86.6948C125.847 85.1503 124.595 83.8982 123.051 83.8982C121.506 83.8982 120.254 85.1503 120.254 86.6948C120.254 88.2393 121.506 89.4914 123.051 89.4914Z" fill="white"/>
<path d="M106.269 81.1018C107.814 81.1018 109.066 79.8497 109.066 78.3052C109.066 76.7606 107.814 75.5085 106.269 75.5085C104.725 75.5085 103.473 76.7606 103.473 78.3052C103.473 79.8497 104.725 81.1018 106.269 81.1018Z" fill="white"/>
<path d="M111.863 89.4914C113.408 89.4914 114.66 88.2393 114.66 86.6948C114.66 85.1503 113.408 83.8982 111.863 83.8982C110.318 83.8982 109.066 85.1503 109.066 86.6948C109.066 88.2393 110.318 89.4914 111.863 89.4914Z" fill="white"/>
<path d="M95.0857 81.1018C96.6302 81.1018 97.8823 79.8497 97.8823 78.3052C97.8823 76.7606 96.6302 75.5085 95.0857 75.5085C93.5411 75.5085 92.2891 76.7606 92.2891 78.3052C92.2891 79.8497 93.5411 81.1018 95.0857 81.1018Z" fill="white"/>
<path d="M100.679 89.4914C102.224 89.4914 103.476 88.2393 103.476 86.6948C103.476 85.1503 102.224 83.8982 100.679 83.8982C99.1349 83.8982 97.8828 85.1503 97.8828 86.6948C97.8828 88.2393 99.1349 89.4914 100.679 89.4914Z" fill="white"/>
<path d="M29.366 148.22C36.3044 148.22 41.9507 142.574 41.9507 135.636C41.9507 128.697 36.3044 123.051 29.366 123.051C22.4276 123.051 16.7812 128.697 16.7812 135.636C16.7812 142.574 22.4276 148.22 29.366 148.22ZM29.366 128.644C33.2197 128.644 36.3575 131.779 36.3575 135.636C36.3575 139.492 33.2197 142.627 29.366 142.627C25.5123 142.627 22.3745 139.492 22.3745 135.636C22.3745 131.779 25.5123 128.644 29.366 128.644Z" fill="white"/>
<path d="M139.832 134.237C141.376 134.237 142.628 132.985 142.628 131.441C142.628 129.896 141.376 128.644 139.832 128.644C138.287 128.644 137.035 129.896 137.035 131.441C137.035 132.985 138.287 134.237 139.832 134.237Z" fill="white"/>
<path d="M128.644 134.237C130.189 134.237 131.441 132.985 131.441 131.441C131.441 129.896 130.189 128.644 128.644 128.644C127.1 128.644 125.848 129.896 125.848 131.441C125.848 132.985 127.1 134.237 128.644 134.237Z" fill="white"/>
<path d="M145.426 142.627C146.97 142.627 148.222 141.375 148.222 139.831C148.222 138.286 146.97 137.034 145.426 137.034C143.881 137.034 142.629 138.286 142.629 139.831C142.629 141.375 143.881 142.627 145.426 142.627Z" fill="white"/>
<path d="M134.238 142.627C135.783 142.627 137.035 141.375 137.035 139.831C137.035 138.286 135.783 137.034 134.238 137.034C132.693 137.034 131.441 138.286 131.441 139.831C131.441 141.375 132.693 142.627 134.238 142.627Z" fill="white"/>
<path d="M117.457 134.237C119.001 134.237 120.253 132.985 120.253 131.441C120.253 129.896 119.001 128.644 117.457 128.644C115.912 128.644 114.66 129.896 114.66 131.441C114.66 132.985 115.912 134.237 117.457 134.237Z" fill="white"/>
<path d="M123.051 142.627C124.595 142.627 125.847 141.375 125.847 139.831C125.847 138.286 124.595 137.034 123.051 137.034C121.506 137.034 120.254 138.286 120.254 139.831C120.254 141.375 121.506 142.627 123.051 142.627Z" fill="white"/>
<path d="M106.269 134.237C107.814 134.237 109.066 132.985 109.066 131.441C109.066 129.896 107.814 128.644 106.269 128.644C104.725 128.644 103.473 129.896 103.473 131.441C103.473 132.985 104.725 134.237 106.269 134.237Z" fill="white"/>
<path d="M111.863 142.627C113.408 142.627 114.66 141.375 114.66 139.831C114.66 138.286 113.408 137.034 111.863 137.034C110.318 137.034 109.066 138.286 109.066 139.831C109.066 141.375 110.318 142.627 111.863 142.627Z" fill="white"/>
<path d="M95.0857 134.237C96.6302 134.237 97.8823 132.985 97.8823 131.441C97.8823 129.896 96.6302 128.644 95.0857 128.644C93.5411 128.644 92.2891 129.896 92.2891 131.441C92.2891 132.985 93.5411 134.237 95.0857 134.237Z" fill="white"/>
<path d="M100.679 142.627C102.224 142.627 103.476 141.375 103.476 139.831C103.476 138.286 102.224 137.034 100.679 137.034C99.1349 137.034 97.8828 138.286 97.8828 139.831C97.8828 141.375 99.1349 142.627 100.679 142.627Z" fill="white"/>
</svg>
