<svg width="165" height="165" viewBox="0 0 165 165" fill="none" xmlns="http://www.w3.org/2000/svg">
<path d="M148.5 46.75H16.4999C14.982 46.75 13.75 47.9791 13.75 49.4999V101.75C13.75 103.271 14.982 104.5 16.4999 104.5H148.5C150.018 104.5 151.25 103.271 151.25 101.75V49.4999C151.25 47.9791 150.018 46.75 148.5 46.75ZM145.75 98.9999H19.2498V52.2498H145.75V98.9999H145.75Z" fill="white"/>
<path d="M70.6949 75.0556C69.6224 73.9802 67.8789 73.9802 66.8064 75.0556L55.8066 86.0555C54.7311 87.1305 54.7311 88.8689 55.8066 89.9439C56.3428 90.4802 57.0469 90.7496 57.7508 90.7496C58.4549 90.7496 59.1588 90.4802 59.695 89.9439L70.6949 78.944C71.7703 77.869 71.7703 76.131 70.6949 75.0556Z" fill="white"/>
<path d="M81.6952 86.0558L70.695 75.0556C69.6225 73.9802 67.8791 73.9802 66.8066 75.0556C65.7311 76.131 65.7311 77.869 66.8066 78.944L77.8064 89.9439C78.3427 90.4802 79.0468 90.7496 79.7507 90.7496C80.4548 90.7496 81.1586 90.4802 81.6949 89.9439C82.7703 88.8689 82.7703 87.1309 81.6952 86.0558Z" fill="white"/>
<path d="M87.1949 69.5558C86.1224 68.4804 84.3789 68.4804 83.3064 69.5558L72.3066 80.5557C71.2311 81.6308 71.2311 83.3691 72.3066 84.4442C72.8428 84.9804 73.5469 85.2498 74.2508 85.2498C74.9549 85.2498 75.6588 84.9804 76.195 84.4442L87.1949 73.4443C88.2703 72.3689 88.2703 70.6309 87.1949 69.5558Z" fill="white"/>
<path d="M98.1947 80.5557L87.1948 69.5558C86.1223 68.4804 84.3788 68.4804 83.3063 69.5558C82.2312 70.6312 82.2312 72.3692 83.3063 73.4443L94.3062 84.4442C94.8425 84.9804 95.5466 85.2498 96.2504 85.2498C96.9546 85.2498 97.6584 84.9804 98.1947 84.4442C99.2697 83.3691 99.2697 81.6308 98.1947 80.5557Z" fill="white"/>
<path d="M152.625 0H12.375C5.55232 0 0 5.55232 0 12.375V152.625C0 159.448 5.55232 165 12.375 165H152.625C159.448 165 165 159.448 165 152.625V12.375C165 5.55232 159.448 0 152.625 0ZM159.5 152.625C159.5 156.417 156.417 159.5 152.625 159.5H12.375C8.58548 159.5 5.50011 156.417 5.50011 152.625V12.375C5.50011 8.58258 8.58548 5.50011 12.375 5.50011H152.625C156.415 5.50011 159.5 8.5829 159.5 12.375V152.625Z" fill="white"/>
<path d="M24.7498 11H13.7499C12.232 11 11 12.2291 11 13.7499V24.7501C11 26.2709 12.232 27.5 13.7499 27.5H24.7498C26.2677 27.5 27.4997 26.2709 27.4997 24.7501V13.7502C27.4997 12.2294 26.2677 11 24.7498 11ZM21.9999 22.0002H16.4998V16.5001H21.9999V22.0002Z" fill="white"/>
<path d="M46.7498 11H35.7499C34.232 11 33 12.2291 33 13.7499V24.7501C33 26.2709 34.232 27.5 35.7499 27.5H46.7498C48.2677 27.5 49.4997 26.2709 49.4997 24.7501V13.7502C49.4997 12.2294 48.2677 11 46.7498 11ZM43.9996 22.0002H38.4995V16.5001H43.9996V22.0002Z" fill="white"/>
<path d="M68.7498 11H57.7499C56.232 11 55 12.2291 55 13.7499V24.7501C55 26.2709 56.232 27.5 57.7499 27.5H68.7498C70.2677 27.5 71.4997 26.2709 71.4997 24.7501V13.7502C71.5 12.2294 70.268 11 68.7498 11ZM65.9999 22.0002H60.4998V16.5001H65.9999V22.0002Z" fill="white"/>
<path d="M109.937 57.75H104.563C101.494 57.75 99 60.2443 99 63.3133V68.6896C99 71.756 101.494 74.25 104.563 74.25H109.937C113.006 74.25 115.5 71.7557 115.5 68.6867V63.3104C115.5 60.2443 113.006 57.75 109.937 57.75ZM110 68.6896C110 68.7199 109.972 68.7502 109.937 68.7502L104.5 68.6896L104.563 63.2501L110 63.3133V68.6896Z" fill="white"/>
<path d="M152.625 0H12.375C5.55232 0 0 5.55232 0 12.375V35.7499C0 37.2707 1.23202 38.4998 2.74989 38.4998H162.25C163.768 38.4998 165 37.2707 165 35.7499V12.375C165 5.55232 159.448 0 152.625 0ZM159.5 33H5.50011V12.375C5.50011 8.58258 8.58548 5.50011 12.375 5.50011H152.625C156.415 5.50011 159.5 8.5829 159.5 12.375V33Z" fill="white"/>
<path d="M115.5 112.75H16.4999C14.982 112.75 13.75 113.979 13.75 115.5C13.75 117.021 14.982 118.25 16.4999 118.25H115.5C117.018 118.25 118.25 117.021 118.25 115.5C118.25 113.979 117.018 112.75 115.5 112.75Z" fill="white"/>
<path d="M148.5 112.75H129.25C127.732 112.75 126.5 113.979 126.5 115.5C126.5 117.021 127.732 118.25 129.25 118.25H148.5C150.018 118.25 151.25 117.021 151.25 115.5C151.25 113.979 150.018 112.75 148.5 112.75Z" fill="white"/>
<path d="M148.5 123.75H49.4999C47.982 123.75 46.75 124.979 46.75 126.5C46.75 128.021 47.982 129.25 49.4999 129.25H148.5C150.018 129.25 151.25 128.021 151.25 126.5C151.25 124.979 150.018 123.75 148.5 123.75Z" fill="white"/>
<path d="M35.7498 123.75H16.4999C14.982 123.75 13.75 124.979 13.75 126.5C13.75 128.021 14.982 129.25 16.4999 129.25H35.7498C37.2677 129.25 38.4997 128.021 38.4997 126.5C38.5 124.979 37.268 123.75 35.7498 123.75Z" fill="white"/>
<path d="M115.5 134.75H16.4999C14.982 134.75 13.75 135.979 13.75 137.5C13.75 139.02 14.982 140.25 16.4999 140.25H115.5C117.018 140.25 118.25 139.021 118.25 137.5C118.25 135.979 117.018 134.75 115.5 134.75Z" fill="white"/>
<path d="M148.5 134.75H129.25C127.732 134.75 126.5 135.979 126.5 137.5C126.5 139.02 127.732 140.25 129.25 140.25H148.5C150.018 140.25 151.25 139.02 151.25 137.5C151.25 135.979 150.018 134.75 148.5 134.75Z" fill="white"/>
<path d="M148.5 145.75H49.4999C47.982 145.75 46.75 146.979 46.75 148.5C46.75 150.021 47.982 151.25 49.4999 151.25H148.5C150.018 151.25 151.25 150.021 151.25 148.5C151.25 146.979 150.018 145.75 148.5 145.75Z" fill="white"/>
<path d="M35.7498 145.75H16.4999C14.982 145.75 13.75 146.979 13.75 148.5C13.75 150.021 14.982 151.25 16.4999 151.25H35.7498C37.2677 151.25 38.4997 150.021 38.4997 148.5C38.5 146.979 37.268 145.75 35.7498 145.75Z" fill="white"/>
</svg>
