<svg width="35" height="35" viewBox="0 0 35 35" fill="none" xmlns="http://www.w3.org/2000/svg">
<path d="M31.354 34.2138L19.924 22.7818C14.8393 26.3967 7.83283 25.5125 3.80571 20.7477C-0.221422 15.9828 0.0742788 8.92697 4.48596 4.5158C8.89648 0.102688 15.953 -0.194292 20.7187 3.83263C25.4845 7.85954 26.3692 14.8667 22.754 19.9518L34.184 31.3838L31.356 34.2118L31.354 34.2138ZM12.97 4.99977C9.17736 4.99892 5.90534 7.66115 5.13491 11.3747C4.36448 15.0882 6.30738 18.8323 9.78732 20.3403C13.2672 21.8482 17.3278 20.7055 19.5104 17.6039C21.6931 14.5023 21.3981 10.2944 18.804 7.5278L20.014 8.7278L18.65 7.3678L18.626 7.3438C17.1295 5.83815 15.0927 4.99405 12.97 4.99977Z" fill="#282E36"/>
</svg>
