<svg width="19" height="25" viewBox="0 0 19 25" fill="none" xmlns="http://www.w3.org/2000/svg">
<path d="M9.33333 24.0049C7.64925 22.5685 6.08825 20.9936 4.66667 19.297C2.53334 16.749 1.17822e-06 12.9543 1.17822e-06 9.33828C-0.0018897 5.56168 2.27233 2.15614 5.76143 0.710813C9.25052 -0.734511 13.2668 0.0652704 15.936 2.73695C17.6913 4.48443 18.6746 6.86147 18.6667 9.33828C18.6667 12.9543 16.1333 16.749 14 19.297C12.5784 20.9936 11.0174 22.5685 9.33333 24.0049ZM9.33334 2.67162C5.65326 2.67602 2.67108 5.65821 2.66667 9.33828C2.66667 10.893 3.36934 13.585 6.71334 17.5863C7.53752 18.5704 8.41202 19.5112 9.33334 20.405C10.2547 19.5122 11.1297 18.5728 11.9547 17.5903C15.2973 13.5836 16 10.8916 16 9.33828C15.9956 5.65821 13.0134 2.67602 9.33334 2.67162ZM9.33334 13.3383C7.1242 13.3383 5.33334 11.5474 5.33334 9.33828C5.33334 7.12914 7.1242 5.33828 9.33334 5.33828C11.5425 5.33828 13.3333 7.12914 13.3333 9.33828C13.3333 10.3991 12.9119 11.4166 12.1618 12.1667C11.4116 12.9169 10.3942 13.3383 9.33334 13.3383Z" fill="#282E36"/>
</svg>
