<svg width="165" height="165" viewBox="0 0 165 165" fill="none" xmlns="http://www.w3.org/2000/svg">
<path d="M164.102 35.5768C164.087 35.3364 164.04 35.0974 163.961 34.8705C163.931 34.7819 163.908 34.6973 163.871 34.6113C163.736 34.3119 163.55 34.0393 163.32 33.8057L130.32 0.805664C130.087 0.574707 129.813 0.388061 129.512 0.255127C129.43 0.217529 129.347 0.194702 129.262 0.165161C129.028 0.0845948 128.787 0.036255 128.541 0.0214844C128.494 0.0308838 128.444 0 128.387 0H45.8866C38.2972 0.00939943 32.146 6.1593 32.1366 13.75V33.9896C13.2317 42.3269 1.03125 61.0398 1.03125 81.7024C1.03125 102.365 13.2317 121.078 32.1366 129.415V151.25C32.146 158.841 38.2972 164.991 45.8866 165H150.387C157.977 164.991 164.129 158.841 164.137 151.25V35.75C164.137 35.6896 164.107 35.6372 164.102 35.5768ZM154.748 33H133.887C132.368 33 131.137 31.7687 131.137 30.25V9.38867L154.748 33ZM6.58899 81.7024C6.57288 69.2979 11.4928 57.3982 20.2638 48.6272C29.0348 39.8562 40.9358 34.9363 53.339 34.9524C54.902 34.9524 56.4529 35.0289 57.9836 35.178C79.2478 37.2794 96.3615 53.5673 99.5116 74.7012C99.8768 77.0175 100.069 79.3579 100.086 81.7024C100.106 90.5096 97.6169 99.1396 92.9119 106.584C89.1803 112.532 84.1516 117.56 78.2018 121.289C63.7952 130.336 45.6113 130.844 30.7227 122.613C15.834 114.383 6.59167 98.714 6.58899 81.7024ZM85.2782 123.013C85.6542 122.721 86.0261 122.433 86.394 122.133C87.7516 121.04 89.0514 119.879 90.2908 118.654C91.5154 117.415 92.6769 116.116 93.7699 114.76C94.0693 114.392 94.358 114.018 94.6494 113.642C94.9824 113.207 95.3436 112.794 95.6619 112.351L119.105 135.823C120.658 137.36 121.532 139.455 121.532 141.64C121.532 143.826 120.658 145.919 119.105 147.458C115.859 150.596 110.709 150.596 107.462 147.458L83.9878 124.025C84.4309 123.703 84.8458 123.346 85.2782 123.013ZM150.387 159.5H45.8866C41.3306 159.5 37.6366 155.806 37.6366 151.25V131.562C37.8071 131.617 37.9857 131.654 38.1589 131.706C38.5994 131.84 39.0452 131.948 39.491 132.071C40.5195 132.346 41.5562 132.622 42.6035 132.827C43.1178 132.935 43.6321 133.034 44.1517 133.125C45.1991 133.309 46.2559 133.454 47.3167 133.576C47.7906 133.63 48.2579 133.697 48.7333 133.738C50.2573 133.868 51.7908 133.952 53.339 133.952C62.4296 133.959 71.3617 131.58 79.2424 127.051L103.557 151.341C106.969 155.076 112.158 156.636 117.063 155.401C121.969 154.167 125.802 150.338 127.04 145.433C128.279 140.528 126.724 135.338 122.991 131.923L98.6871 107.604C103.216 99.7238 105.597 90.7916 105.589 81.7024C105.589 79.9608 105.506 78.2327 105.337 76.5193C104.163 64.5042 98.8442 53.2732 90.2935 44.7533C80.514 34.9215 67.2072 29.4121 53.339 29.4524C51.7908 29.4524 50.2573 29.5383 48.7333 29.6672C48.2579 29.7089 47.7866 29.7747 47.314 29.8297C46.2559 29.9479 45.2045 30.0983 44.1571 30.2809C43.6348 30.3722 43.1138 30.4716 42.5955 30.5803C41.5615 30.7952 40.5356 31.0476 39.5178 31.3282C39.0613 31.4518 38.6047 31.5619 38.1428 31.6989C37.9723 31.7512 37.7991 31.7875 37.6285 31.8425V13.75C37.6285 9.19397 41.3225 5.5 45.8785 5.5H125.637V30.25C125.637 34.806 129.331 38.5 133.887 38.5H158.637V151.25C158.637 155.806 154.944 159.5 150.387 159.5Z" fill="white"/>
<path d="M114.637 19.25C114.637 17.7313 113.405 16.5 111.887 16.5H51.3867C49.868 16.5 48.6367 17.7313 48.6367 19.25C48.6367 20.7687 49.868 22 51.3867 22H111.887C113.405 22 114.637 20.7687 114.637 19.25Z" fill="white"/>
<path d="M144.887 66H111.887C110.368 66 109.137 67.2313 109.137 68.75C109.137 70.2687 110.368 71.5 111.887 71.5H144.887C146.405 71.5 147.637 70.2687 147.637 68.75C147.637 67.2313 146.405 66 144.887 66Z" fill="white"/>
<path d="M144.887 82.5H111.887C110.368 82.5 109.137 83.7313 109.137 85.25C109.137 86.7687 110.368 88 111.887 88H144.887C146.405 88 147.637 86.7687 147.637 85.25C147.637 83.7313 146.405 82.5 144.887 82.5Z" fill="white"/>
<path d="M147.637 101.75C147.637 100.231 146.405 99 144.887 99H109.137C107.618 99 106.387 100.231 106.387 101.75C106.387 103.269 107.618 104.5 109.137 104.5H144.887C146.405 104.5 147.637 103.269 147.637 101.75Z" fill="white"/>
<path d="M147.637 118.25C147.637 116.731 146.405 115.5 144.887 115.5H120.137C118.618 115.5 117.387 116.731 117.387 118.25C117.387 119.769 118.618 121 120.137 121H144.887C146.405 121 147.637 119.769 147.637 118.25Z" fill="white"/>
<path d="M114.637 35.75C114.637 34.2313 113.405 33 111.887 33H89.8867C88.368 33 87.1367 34.2313 87.1367 35.75C87.1367 37.2687 88.368 38.5 89.8867 38.5H111.887C113.405 38.5 114.637 37.2687 114.637 35.75Z" fill="white"/>
<path d="M147.637 52.25C147.637 50.7313 146.405 49.5 144.887 49.5H103.637C102.118 49.5 100.887 50.7313 100.887 52.25C100.887 53.7687 102.118 55 103.637 55H144.887C146.405 55 147.637 53.7687 147.637 52.25Z" fill="white"/>
<path d="M43.1367 68.75H62.3867C63.9054 68.75 65.1367 67.5187 65.1367 66C65.1367 64.4813 63.9054 63.25 62.3867 63.25H43.1367C41.618 63.25 40.3867 64.4813 40.3867 66C40.3867 67.5187 41.618 68.75 43.1367 68.75Z" fill="white"/>
<path d="M76.1367 82.5C76.1367 80.9813 74.9054 79.75 73.3867 79.75H32.1367C30.618 79.75 29.3867 80.9813 29.3867 82.5C29.3867 84.0187 30.618 85.25 32.1367 85.25H73.3867C74.9054 85.25 76.1367 84.0187 76.1367 82.5Z" fill="white"/>
<path d="M62.3867 96.25H43.1367C41.618 96.25 40.3867 97.4813 40.3867 99C40.3867 100.519 41.618 101.75 43.1367 101.75H62.3867C63.9054 101.75 65.1367 100.519 65.1367 99C65.1367 97.4813 63.9054 96.25 62.3867 96.25Z" fill="white"/>
<path d="M72.9125 117.975C79.6196 114.403 85.1814 109.008 88.9559 102.413C89.1735 102.033 89.4098 101.665 89.6139 101.28C89.72 101.081 89.8032 100.876 89.9053 100.677C90.3229 99.8742 90.7297 99.0713 91.0896 98.2495C91.4508 97.4277 91.7341 96.6462 92.0282 95.8379C92.1128 95.6042 92.2202 95.3759 92.3035 95.1396C99.2966 74.8033 89.4944 52.5052 69.7825 43.9101C50.0692 35.315 27.0608 43.3072 16.9202 62.2712C13.7284 68.2452 12.066 74.9174 12.0821 81.6917C12.0566 96.2259 19.6903 109.698 32.1714 117.145C44.6525 124.593 60.1333 124.914 72.9125 117.991V117.975ZM36.1997 113.075C33.2067 111.444 30.4647 109.389 28.0571 106.975C26.3867 105.306 24.8841 103.478 23.5696 101.516C22.9197 100.544 22.3221 99.5466 21.7729 98.5221C13.4961 82.8935 17.8816 63.5616 32.0922 53.0356C46.3027 42.5096 66.0737 43.9491 78.6112 56.4221C89.7146 67.6302 92.2122 84.7694 84.7705 98.6805V98.7033C81.4914 104.838 76.4641 109.862 70.3276 113.138C59.6821 118.921 46.8278 118.901 36.1997 113.086V113.075Z" fill="white"/>
<path d="M150.387 132C148.868 132 147.637 133.231 147.637 134.75V145.75C147.637 147.269 146.405 148.5 144.887 148.5H133.887C132.368 148.5 131.137 149.731 131.137 151.25C131.137 152.769 132.368 154 133.887 154H144.887C149.444 154 153.137 150.306 153.137 145.75V134.75C153.137 133.231 151.905 132 150.387 132Z" fill="white"/>
</svg>
