<svg width="35" height="35" viewBox="0 0 35 35" fill="none" xmlns="http://www.w3.org/2000/svg">
<path d="M32.0774 1.07617H2.88583C1.88627 1.07677 1.07597 1.88747 1.07617 2.88743V32.079C1.07677 33.0786 1.88747 33.8889 2.88743 33.8887H18.6039V21.1995H14.3422V16.2327H18.6039V12.5776C18.6039 8.33882 21.1917 6.03169 24.9728 6.03169C26.7838 6.03169 28.3401 6.16668 28.7938 6.22696V10.6572H26.1864C24.1292 10.6572 23.7309 11.6347 23.7309 13.0694V16.2327H28.6496L28.0087 21.1995H23.7309V33.8887H32.0774C33.0776 33.8889 33.8885 33.0784 33.8887 32.0782C33.8887 32.078 33.8887 32.0778 33.8887 32.0774V2.88583C33.8883 1.88627 33.0774 1.07597 32.0774 1.07617Z" fill="white"/>
</svg>
