<svg width="164" height="164" viewBox="0 0 164 164" fill="none" xmlns="http://www.w3.org/2000/svg">
<path d="M48.9892 127.046C51.1722 123.743 52.4473 119.791 52.4473 115.544C52.4473 104.015 43.0641 94.636 31.5303 94.636C19.9965 94.636 10.6136 104.015 10.6136 115.544C10.6136 119.791 11.889 123.744 14.072 127.046C5.77491 130.483 0 138.72 0 147.986V160.797C0 162.566 1.43404 164 3.20312 164H59.8578C61.6268 164 63.0609 162.566 63.0609 160.797V147.986C63.0609 138.718 57.286 130.482 48.9892 127.046ZM31.5303 101.042C39.5314 101.042 46.0411 107.548 46.0411 115.544C46.0411 123.546 39.5317 130.056 31.5303 130.056C23.5292 130.056 17.0198 123.546 17.0198 115.544C17.0198 107.548 23.5292 101.042 31.5303 101.042ZM56.6546 157.594H6.40625V147.986C6.40625 140.484 11.685 133.922 18.8872 132.194C22.4017 134.869 26.7826 136.462 31.5303 136.462C36.278 136.462 40.6592 134.869 44.1737 132.194C51.3759 133.921 56.6546 140.483 56.6546 147.986V157.594Z" fill="white"/>
<path d="M149.915 127.046C152.098 123.743 153.373 119.791 153.373 115.544C153.373 104.015 143.99 94.636 132.456 94.636C120.927 94.636 111.548 104.015 111.548 115.544C111.548 119.79 112.823 123.742 115.004 127.044C106.704 130.479 100.926 138.717 100.926 147.986V160.797C100.926 162.566 102.36 164 104.129 164H160.793C162.562 164 163.996 162.566 163.996 160.797V147.986C163.996 138.718 158.217 130.482 149.915 127.046ZM132.456 101.042C140.457 101.042 146.967 107.548 146.967 115.544C146.967 123.546 140.457 130.056 132.456 130.056C124.46 130.056 117.955 123.546 117.955 115.544C117.955 107.548 124.46 101.042 132.456 101.042ZM157.589 157.594H107.332V147.986C107.332 140.483 112.613 133.92 119.817 132.193C123.33 134.869 127.71 136.462 132.456 136.462C137.204 136.462 141.585 134.869 145.099 132.193C152.307 133.921 157.589 140.483 157.589 147.986V157.594H157.589Z" fill="white"/>
<path d="M132.545 84.6387C133.07 84.9747 133.67 85.1442 134.272 85.1442C134.79 85.1442 135.31 85.0186 135.783 84.7656C136.805 84.2188 137.452 83.1618 137.475 82.0026L137.66 72.3368C146.145 70.2564 152.438 62.4984 152.438 53.5402C152.438 44.1672 145.737 36.3321 136.876 34.5675C137.331 32.5393 137.566 30.4678 137.566 28.3714C137.565 12.7273 124.839 0 109.195 0H87.3408C85.5717 0 84.1377 1.43404 84.1377 3.20312C84.1377 4.97221 85.5717 6.40625 87.3408 6.40625H109.195C121.306 6.40625 131.16 16.26 131.16 28.3717C131.16 30.3493 130.892 32.299 130.368 34.1937H86.6147C77.0386 34.1937 69.0699 41.189 67.5385 50.3371H58.932C58.2078 50.3371 57.505 50.5825 56.938 51.0331L37.9669 66.1215L37.7199 53.3778C37.6882 51.7407 36.4268 50.3909 34.7955 50.2487C23.5551 49.2695 14.75 39.6598 14.75 28.371C14.75 16.26 24.6073 6.40625 36.7238 6.40625H58.5777C60.3468 6.40625 61.7808 4.97221 61.7808 3.20312C61.7808 1.43404 60.3468 0 58.5777 0H36.7238C21.0749 0 8.34375 12.7273 8.34375 28.3717C8.34375 35.49 11.0164 42.3085 15.8698 47.5718C20.0281 52.0815 25.4513 55.0947 31.3678 56.2318L31.6872 72.7237C31.7109 73.9422 32.4236 75.0415 33.5261 75.5601C33.9607 75.7648 34.4262 75.8651 34.8893 75.8651C35.6007 75.8651 36.3061 75.6283 36.8836 75.169L60.0502 56.7437H67.5385C69.0699 65.8918 77.0386 72.8871 86.6147 72.8871H114.186L132.545 84.6387ZM73.6747 53.5402C73.6747 46.405 79.4797 40.5999 86.6147 40.5999H133.092C140.227 40.5999 146.032 46.405 146.032 53.5402C146.032 60.1906 140.848 65.8521 134.23 66.429C132.598 66.5712 131.337 67.9213 131.306 69.5587L131.179 76.1578L116.851 66.9857C116.335 66.6558 115.736 66.4802 115.124 66.4802H86.6147C79.4794 66.4805 73.6747 60.6755 73.6747 53.5402Z" fill="white"/>
<path d="M91.6797 50.3325C89.9106 50.3325 88.4766 51.771 88.4766 53.5401C88.4766 55.3092 89.9106 56.7433 91.6797 56.7433C93.4488 56.7433 94.8828 55.3092 94.8828 53.5401V53.5312C94.8828 51.7621 93.4488 50.3325 91.6797 50.3325Z" fill="white"/>
<path d="M109.855 50.3325C108.086 50.3325 106.652 51.771 106.652 53.5401C106.652 55.3092 108.086 56.7433 109.855 56.7433C111.625 56.7433 113.059 55.3092 113.059 53.5401V53.5312C113.059 51.7621 111.625 50.3325 109.855 50.3325Z" fill="white"/>
<path d="M128.023 56.7433C129.793 56.7433 131.227 55.3092 131.227 53.5401V53.5312C131.227 51.7621 129.793 50.3325 128.023 50.3325C126.254 50.3325 124.82 51.771 124.82 53.5401C124.82 55.3092 126.254 56.7433 128.023 56.7433Z" fill="white"/>
<path d="M72.9606 6.40625H72.9789C74.748 6.40625 76.173 4.97221 76.173 3.20312C76.173 1.43404 74.73 0 72.9609 0C71.1919 0 69.7578 1.43404 69.7578 3.20312C69.7578 4.97221 71.1915 6.40625 72.9606 6.40625Z" fill="white"/>
</svg>
