<svg width="10" height="10" viewBox="0 0 10 10" fill="none" xmlns="http://www.w3.org/2000/svg">
<path d="M5.00001 9.50007C4.67751 9.21407 4.31301 8.91657 3.92751 8.60007H3.92251C2.56501 7.49007 1.02651 6.23407 0.347011 4.72907C0.12377 4.24994 0.0054634 3.72864 5.70299e-06 3.20007C-0.00148519 2.47482 0.289397 1.77957 0.806915 1.27146C1.32443 0.763348 2.0249 0.485271 2.75001 0.500074C3.34033 0.501006 3.91793 0.671614 4.41401 0.991574C4.632 1.13306 4.82922 1.3042 5.00001 1.50007C5.17175 1.30497 5.36903 1.13393 5.58651 0.991574C6.08238 0.671551 6.65984 0.500933 7.25001 0.500074C7.97512 0.485271 8.67559 0.763348 9.19311 1.27146C9.71063 1.77957 10.0015 2.47482 10 3.20007C9.99492 3.72948 9.8766 4.25167 9.65301 4.73157C8.97351 6.23657 7.43551 7.49207 6.07801 8.60007L6.07301 8.60407C5.68701 8.91857 5.32301 9.21607 5.00051 9.50407L5.00001 9.50007ZM2.75001 1.50007C2.28427 1.49425 1.83505 1.6725 1.50001 1.99607C1.1772 2.31316 0.996789 2.7476 0.999969 3.20007C1.00567 3.58532 1.09292 3.965 1.25601 4.31407C1.57677 4.96343 2.00957 5.5511 2.53451 6.05007C3.03001 6.55007 3.60001 7.03407 4.09301 7.44107C4.22951 7.55357 4.36851 7.66707 4.50751 7.78057L4.59501 7.85207C4.72851 7.96107 4.86651 8.07407 5.00001 8.18507L5.00651 8.17907L5.00951 8.17657H5.01251L5.01701 8.17307H5.01951H5.02201L5.03101 8.16557L5.05151 8.14907L5.05501 8.14607L5.06051 8.14207H5.06351L5.06801 8.13807L5.40001 7.86557L5.48701 7.79407C5.62751 7.67957 5.76651 7.56607 5.90301 7.45357C6.39601 7.04657 6.96651 6.56307 7.46201 6.06057C7.98703 5.56185 8.41984 4.97433 8.74051 4.32507C8.90655 3.97297 8.99504 3.58933 9.00003 3.20007C9.00209 2.74899 8.82177 2.31622 8.50001 2.00007C8.16562 1.67503 7.71632 1.49532 7.25001 1.50007C6.68097 1.49524 6.13698 1.73376 5.75501 2.15557L5.00001 3.02557L4.24501 2.15557C3.86304 1.73376 3.31905 1.49524 2.75001 1.50007Z" fill="#282E36"/>
</svg>
