<svg width="35" height="33" viewBox="0 0 35 33" fill="none" xmlns="http://www.w3.org/2000/svg">
<g clip-path="url(#clip0)">
<path d="M25.2084 10.912C25.052 10.5006 24.8025 10.1282 24.4782 9.82259C24.1633 9.50787 23.7799 9.26567 23.3558 9.11385C23.0118 8.98419 22.4951 8.82986 21.5434 8.78781C20.5138 8.74224 20.2051 8.73242 17.5987 8.73242C14.992 8.73242 14.6833 8.74199 13.654 8.78756C12.7023 8.82986 12.1853 8.98419 11.8416 9.11385C11.4175 9.26567 11.0338 9.50787 10.7192 9.82259C10.3949 10.1282 10.1454 10.5004 9.98869 10.912C9.8551 11.2458 9.69609 11.7476 9.65277 12.6714C9.60582 13.6704 9.5957 13.97 9.5957 16.5C9.5957 19.0298 9.60582 19.3294 9.65277 20.3287C9.69609 21.2524 9.8551 21.754 9.98869 22.0878C10.1454 22.4995 10.3947 22.8716 10.7189 23.1772C11.0338 23.4919 11.4172 23.7341 11.8413 23.886C12.1853 24.0159 12.7023 24.1702 13.654 24.2122C14.6833 24.2578 14.9917 24.2674 17.5984 24.2674C20.2054 24.2674 20.5141 24.2578 21.5431 24.2122C22.4949 24.1702 23.0118 24.0159 23.3558 23.886C24.2072 23.5672 24.88 22.9141 25.2084 22.0878C25.342 21.754 25.501 21.2524 25.5446 20.3287C25.5916 19.3294 25.6014 19.0298 25.6014 16.5C25.6014 13.97 25.5916 13.6704 25.5446 12.6714C25.5013 11.7476 25.3423 11.2458 25.2084 10.912ZM17.5987 21.365C14.8301 21.365 12.5858 19.1869 12.5858 16.4998C12.5858 13.8126 14.8301 11.6346 17.5987 11.6346C20.367 11.6346 22.6113 13.8126 22.6113 16.4998C22.6113 19.1869 20.367 21.365 17.5987 21.365ZM22.8095 12.5792C22.1626 12.5792 21.6381 12.0701 21.6381 11.4422C21.6381 10.8143 22.1626 10.3052 22.8095 10.3052C23.4564 10.3052 23.981 10.8143 23.981 11.4422C23.9807 12.0701 23.4564 12.5792 22.8095 12.5792Z" fill="white"/>
<path d="M20.8535 16.5C20.8535 18.2443 19.3967 19.6582 17.5996 19.6582C15.8025 19.6582 14.3457 18.2443 14.3457 16.5C14.3457 14.7557 15.8025 13.3418 17.5996 13.3418C19.3967 13.3418 20.8535 14.7557 20.8535 16.5Z" fill="white"/>
<path d="M32.1475 0H3.05171C1.69739 0 0.599609 1.06549 0.599609 2.37998V30.62C0.599609 31.9345 1.69739 33 3.05171 33H32.1475C33.5018 33 34.5996 31.9345 34.5996 30.62V2.37998C34.5996 1.06549 33.5018 0 32.1475 0V0ZM27.3024 20.4062C27.2552 21.4148 27.09 22.1034 26.8488 22.7061C26.3416 23.9788 25.3051 24.9849 23.9938 25.4771C23.3731 25.7113 22.6633 25.8714 21.6245 25.9175C20.5835 25.9635 20.2509 25.9746 17.5999 25.9746C14.9485 25.9746 14.6163 25.9635 13.575 25.9175C12.5361 25.8714 11.8264 25.7113 11.2057 25.4771C10.5541 25.2392 9.96419 24.8663 9.47652 24.3842C8.98003 23.9111 8.59586 23.3383 8.35072 22.7061C8.10948 22.1036 7.94424 21.4148 7.89703 20.4065C7.84904 19.3959 7.83789 19.0731 7.83789 16.5C7.83789 13.9269 7.84904 13.6041 7.89677 12.5938C7.94398 11.5852 8.10896 10.8966 8.3502 10.2939C8.59534 9.66167 8.97977 9.0889 9.47652 8.61582C9.96393 8.13368 10.5541 7.76081 11.2054 7.52289C11.8264 7.28874 12.5359 7.12862 13.575 7.08254C14.616 7.03647 14.9485 7.02539 17.5996 7.02539C20.2507 7.02539 20.5832 7.03647 21.6242 7.08279C22.6633 7.12862 23.3728 7.28874 23.9938 7.52264C24.6452 7.76056 25.2353 8.13368 25.723 8.61582C26.2195 9.08915 26.6039 9.66167 26.8488 10.2939C27.0903 10.8966 27.2552 11.5852 27.3027 12.5938C27.3502 13.6041 27.3613 13.9269 27.3613 16.5C27.3613 19.0731 27.3502 19.3959 27.3024 20.4062Z" fill="white"/>
</g>
<defs>
<clipPath id="clip0">
<rect width="34" height="33" fill="white" transform="translate(0.599609)"/>
</clipPath>
</defs>
</svg>
