<svg width="14" height="14" viewBox="0 0 14 14" fill="none" xmlns="http://www.w3.org/2000/svg">
<path fill-rule="evenodd" clip-rule="evenodd" d="M13.125 12.25C13.125 12.25 14 12.25 14 11.375C14 10.5 13.125 7.875 9.625 7.875C6.125 7.875 5.25 10.5 5.25 11.375C5.25 12.25 6.125 12.25 6.125 12.25H13.125ZM6.14455 11.375H13.1054C13.1085 11.3747 13.1127 11.3741 13.1179 11.3732C13.1203 11.3728 13.1227 11.3724 13.125 11.372C13.1237 11.1409 12.979 10.471 12.4607 9.86632C11.9758 9.30069 11.1276 8.75 9.625 8.75C8.12235 8.75 7.27417 9.30069 6.78935 9.86632C6.27101 10.471 6.12628 11.1409 6.12501 11.372C6.12733 11.3724 6.12971 11.3728 6.13213 11.3732C6.13728 11.3741 6.14152 11.3747 6.14455 11.375Z" fill="#282E36"/>
<path fill-rule="evenodd" clip-rule="evenodd" d="M9.625 6.125C10.5915 6.125 11.375 5.3415 11.375 4.375C11.375 3.4085 10.5915 2.625 9.625 2.625C8.6585 2.625 7.875 3.4085 7.875 4.375C7.875 5.3415 8.6585 6.125 9.625 6.125ZM12.25 4.375C12.25 5.82475 11.0747 7 9.625 7C8.17525 7 7 5.82475 7 4.375C7 2.92525 8.17525 1.75 9.625 1.75C11.0747 1.75 12.25 2.92525 12.25 4.375Z" fill="#282E36"/>
<path fill-rule="evenodd" clip-rule="evenodd" d="M6.06894 8.11997C5.74712 8.01703 5.38959 7.94219 4.993 7.90392C4.79671 7.88498 4.59085 7.875 4.375 7.875C0.875 7.875 0 10.5 0 11.375C0 11.9583 0.291667 12.25 0.875 12.25H4.56432C4.44112 12.0014 4.375 11.7067 4.375 11.375C4.375 10.491 4.70509 9.58827 5.32859 8.83417C5.54161 8.57653 5.78888 8.33624 6.06894 8.11997ZM4.30504 8.7504C2.84593 8.76721 2.0166 9.30953 1.53935 9.86632C1.01871 10.4737 0.875 11.1469 0.875 11.375H3.5C3.5 10.4603 3.78224 9.54941 4.30504 8.7504Z" fill="#282E36"/>
<path fill-rule="evenodd" clip-rule="evenodd" d="M1.3125 4.8125C1.3125 3.36275 2.48775 2.1875 3.9375 2.1875C5.38725 2.1875 6.5625 3.36275 6.5625 4.8125C6.5625 6.26225 5.38725 7.4375 3.9375 7.4375C2.48775 7.4375 1.3125 6.26225 1.3125 4.8125ZM3.9375 3.0625C2.971 3.0625 2.1875 3.846 2.1875 4.8125C2.1875 5.779 2.971 6.5625 3.9375 6.5625C4.904 6.5625 5.6875 5.779 5.6875 4.8125C5.6875 3.846 4.904 3.0625 3.9375 3.0625Z" fill="#282E36"/>
</svg>
