<svg width="20" height="20" viewBox="0 0 20 20" fill="none" xmlns="http://www.w3.org/2000/svg">
<path fill-rule="evenodd" clip-rule="evenodd" d="M18.6533 16.7435C18.6533 16.7435 19.8435 16.7435 19.8435 15.5533C19.8435 14.3631 18.6533 10.7925 13.8924 10.7925C9.13161 10.7925 7.94141 14.3631 7.94141 15.5533C7.94141 16.7435 9.13161 16.7435 9.13161 16.7435H18.6533ZM9.15821 15.5533H18.6267C18.6308 15.5528 18.6366 15.5521 18.6436 15.5509C18.6469 15.5504 18.6501 15.5498 18.6533 15.5492C18.6515 15.2349 18.4547 14.3237 17.7496 13.5011C17.0901 12.7318 15.9364 11.9827 13.8924 11.9827C11.8485 11.9827 10.6948 12.7318 10.0353 13.5011C9.33023 14.3237 9.13335 15.2349 9.13163 15.5492C9.13478 15.5498 9.13801 15.5504 9.14131 15.5509C9.14832 15.5521 9.15408 15.5528 9.15821 15.5533Z" fill="white"/>
<path fill-rule="evenodd" clip-rule="evenodd" d="M13.8929 8.41198C15.2076 8.41198 16.2733 7.34623 16.2733 6.03156C16.2733 4.71689 15.2076 3.65115 13.8929 3.65115C12.5782 3.65115 11.5125 4.71689 11.5125 6.03156C11.5125 7.34623 12.5782 8.41198 13.8929 8.41198ZM17.4635 6.03156C17.4635 8.00356 15.8649 9.60219 13.8929 9.60219C11.9209 9.60219 10.3223 8.00356 10.3223 6.03156C10.3223 4.05956 11.9209 2.46094 13.8929 2.46094C15.8649 2.46094 17.4635 4.05956 17.4635 6.03156Z" fill="white"/>
<path fill-rule="evenodd" clip-rule="evenodd" d="M9.05598 11.1257C8.61823 10.9857 8.13191 10.8839 7.59244 10.8318C7.32544 10.8061 7.04542 10.7925 6.75182 10.7925C1.99099 10.7925 0.800781 14.3631 0.800781 15.5533C0.800781 16.3468 1.19752 16.7435 1.99099 16.7435H7.00934C6.84176 16.4054 6.75182 16.0046 6.75182 15.5533C6.75182 14.3509 7.20082 13.1229 8.04893 12.0972C8.33869 11.7467 8.67504 11.4199 9.05598 11.1257ZM6.65666 11.9832C4.67193 12.0061 3.54384 12.7438 2.89466 13.5011C2.18647 14.3274 1.99099 15.243 1.99099 15.5533H5.56161C5.56161 14.3092 5.94552 13.0701 6.65666 11.9832Z" fill="white"/>
<path fill-rule="evenodd" clip-rule="evenodd" d="M2.58594 6.62678C2.58594 4.65478 4.18456 3.05615 6.15656 3.05615C8.12856 3.05615 9.72719 4.65478 9.72719 6.62678C9.72719 8.59878 8.12856 10.1974 6.15656 10.1974C4.18456 10.1974 2.58594 8.59878 2.58594 6.62678ZM6.15656 4.24636C4.84189 4.24636 3.77615 5.31211 3.77615 6.62678C3.77615 7.94145 4.84189 9.00719 6.15656 9.00719C7.47123 9.00719 8.53698 7.94145 8.53698 6.62678C8.53698 5.31211 7.47123 4.24636 6.15656 4.24636Z" fill="white"/>
</svg>
