<svg width="11" height="12" viewBox="0 0 11 12" fill="none" xmlns="http://www.w3.org/2000/svg">
<path d="M10.5279 4.48282L7.30451 4.01436L5.86359 1.09317C5.82424 1.01319 5.75949 0.948442 5.67951 0.909087C5.47893 0.810063 5.23518 0.892583 5.13488 1.09317L3.69396 4.01436L0.470625 4.48282C0.381758 4.49551 0.300508 4.53741 0.2383 4.60088C0.163096 4.67818 0.121654 4.78217 0.123083 4.89001C0.124511 4.99785 0.168692 5.1007 0.245918 5.17598L2.57805 7.44971L2.02707 10.6604C2.01415 10.735 2.02241 10.8119 2.05093 10.8821C2.07944 10.9523 2.12706 11.0131 2.18839 11.0577C2.24972 11.1022 2.3223 11.1287 2.3979 11.1341C2.4735 11.1395 2.54911 11.1236 2.61613 11.0882L5.49924 9.57237L8.38234 11.0882C8.46105 11.1301 8.55246 11.144 8.64006 11.1288C8.86096 11.0907 9.00949 10.8813 8.97141 10.6604L8.42043 7.44971L10.7526 5.17598C10.816 5.11377 10.8579 5.03252 10.8706 4.94366C10.9049 4.72149 10.75 4.51583 10.5279 4.48282Z" fill="#FFF500"/>
</svg>
