<svg width="13" height="13" viewBox="0 0 13 13" fill="none" xmlns="http://www.w3.org/2000/svg">
<path d="M3.02707 10.6604L3.57805 7.44971L1.24592 5.17598C1.16869 5.1007 1.12451 4.99785 1.12308 4.89001C1.12165 4.78217 1.1631 4.67818 1.2383 4.60088M3.02707 10.6604L3.38268 10.646L3.38345 10.6456M3.02707 10.6604C3.01415 10.735 3.02241 10.8119 3.05093 10.8821L3.02707 10.6604ZM1.2383 4.60088L1.52786 4.88465L1.52806 4.88485L1.5289 4.88567L1.52893 4.8857L1.52922 4.88598L1.59541 4.95085C1.58241 4.96411 1.56405 4.97427 1.54253 4.97761L1.73066 4.95028M1.2383 4.60088L1.52772 4.88247L1.52887 4.88359L1.52993 4.88462L1.52996 4.88465L1.59667 4.94955C1.61388 4.93186 1.62337 4.90806 1.62304 4.88339C1.62271 4.85872 1.61261 4.8352 1.59496 4.81797L1.73066 4.95028M1.2383 4.60088C1.30051 4.53741 1.38176 4.49551 1.47062 4.48282L9.44635 10.5569M1.73066 4.95028L3.92709 7.0917L4.1153 7.2752L4.07084 7.53428L3.55212 10.5569M1.73066 4.95028L4.76588 4.50916L5.02607 4.47135L5.14238 4.23555L6.49924 1.48477L7.8561 4.23555L7.97241 4.47135L8.2326 4.50916L11.2678 4.95028L9.07139 7.0917L8.88317 7.2752L8.92763 7.53428L9.44635 10.5569M3.55212 10.5569L3.38345 10.6456M3.55212 10.5569L6.26656 9.12981L6.49924 9.00747L6.73192 9.12981L9.44635 10.5569M3.55212 10.5569L3.51987 10.7449C3.52271 10.7278 3.52075 10.7101 3.5142 10.694C3.50757 10.6777 3.49649 10.6635 3.48221 10.6531C3.46794 10.6428 3.45106 10.6366 3.43346 10.6354C3.41616 10.6341 3.39885 10.6377 3.38345 10.6456M3.38345 10.6456L9.44635 10.5569M6.41518 1.31436C6.41514 1.31428 6.4151 1.3142 6.41507 1.31413L6.41518 1.31436Z" fill="white" stroke="#1D2023"/>
</svg>
