<svg width="34" height="33" viewBox="0 0 34 33" fill="none" xmlns="http://www.w3.org/2000/svg">
<path d="M23.5931 10.855L11.1219 18.3623C10.9024 18.4944 10.8025 18.754 10.8791 18.9935L12.552 24.2254C12.5871 24.3353 12.7521 24.3202 12.7654 24.2058L13.172 20.6976C13.1877 20.5621 13.2547 20.437 13.3599 20.3466L23.9208 11.2824C24.1736 11.0655 23.88 10.6823 23.5931 10.855Z" fill="white"/>
<path d="M0 0V33H34V0H0ZM28.3413 8.57478L24.4595 26.5878C24.2773 27.433 23.2558 27.8127 22.5386 27.3017L16.6777 23.1261L13.6905 26.0863C13.1663 26.6059 12.2607 26.3956 12.0354 25.702L9.87925 19.0614L4.10173 17.4055C3.34374 17.1883 3.29905 16.1626 4.03548 15.884L26.7717 7.28456C27.6371 6.95726 28.5314 7.69238 28.3413 8.57478Z" fill="white"/>
</svg>
