<svg width="41" height="42" viewBox="0 0 41 42" fill="none" xmlns="http://www.w3.org/2000/svg">
<path d="M36.4444 6H4.55556C3.34735 6 2.18862 6.47996 1.33429 7.33429C0.479959 8.18862 0 9.34735 0 10.5556L0 15.1111H41V10.5556C41 9.34735 40.52 8.18862 39.6657 7.33429C38.8114 6.47996 37.6527 6 36.4444 6Z" fill="white"/>
<path d="M0 15.1113H41V26.5002H0V15.1113Z" fill="#22408C"/>
<path d="M41 31.0556C41 32.2638 40.52 33.4225 39.6657 34.2768C38.8114 35.1312 37.6527 35.6111 36.4444 35.6111H4.55556C3.34735 35.6111 2.18862 35.1312 1.33429 34.2768C0.479959 33.4225 0 32.2638 0 31.0556V26.5H41V31.0556Z" fill="#D72323"/>
</svg>
