<svg width="770" height="525" viewBox="0 0 770 525" fill="none" xmlns="http://www.w3.org/2000/svg">
<g clip-path="url(#clip0)">
<path d="M174.757 13.6267C178.52 13.6267 181.57 10.5763 181.57 6.81335C181.57 3.05044 178.52 0 174.757 0C170.994 0 167.943 3.05044 167.943 6.81335C167.943 10.5763 170.994 13.6267 174.757 13.6267Z" fill="#E6E6E6"/>
<path d="M209.247 13.6267C213.01 13.6267 216.06 10.5763 216.06 6.81335C216.06 3.05044 213.01 0 209.247 0C205.484 0 202.434 3.05044 202.434 6.81335C202.434 10.5763 205.484 13.6267 209.247 13.6267Z" fill="#E6E6E6"/>
<path d="M243.735 13.6267C247.498 13.6267 250.549 10.5763 250.549 6.81335C250.549 3.05044 247.498 0 243.735 0C239.972 0 236.922 3.05044 236.922 6.81335C236.922 10.5763 239.972 13.6267 243.735 13.6267Z" fill="#E6E6E6"/>
<path d="M278.224 13.6267C281.986 13.6267 285.037 10.5763 285.037 6.81335C285.037 3.05044 281.986 0 278.224 0C274.461 0 271.41 3.05044 271.41 6.81335C271.41 10.5763 274.461 13.6267 278.224 13.6267Z" fill="#E6E6E6"/>
<path d="M312.714 13.6267C316.477 13.6267 319.527 10.5763 319.527 6.81335C319.527 3.05044 316.477 0 312.714 0C308.951 0 305.9 3.05044 305.9 6.81335C305.9 10.5763 308.951 13.6267 312.714 13.6267Z" fill="#E6E6E6"/>
<path d="M174.757 48.5487C178.52 48.5487 181.57 45.4983 181.57 41.7353C181.57 37.9724 178.52 34.922 174.757 34.922C170.994 34.922 167.943 37.9724 167.943 41.7353C167.943 45.4983 170.994 48.5487 174.757 48.5487Z" fill="#E6E6E6"/>
<path d="M209.247 48.5487C213.01 48.5487 216.06 45.4983 216.06 41.7353C216.06 37.9724 213.01 34.922 209.247 34.922C205.484 34.922 202.434 37.9724 202.434 41.7353C202.434 45.4983 205.484 48.5487 209.247 48.5487Z" fill="#E6E6E6"/>
<path d="M243.735 48.5487C247.498 48.5487 250.549 45.4983 250.549 41.7353C250.549 37.9724 247.498 34.922 243.735 34.922C239.972 34.922 236.922 37.9724 236.922 41.7353C236.922 45.4983 239.972 48.5487 243.735 48.5487Z" fill="#E6E6E6"/>
<path d="M278.224 48.5487C281.986 48.5487 285.037 45.4983 285.037 41.7353C285.037 37.9724 281.986 34.922 278.224 34.922C274.461 34.922 271.41 37.9724 271.41 41.7353C271.41 45.4983 274.461 48.5487 278.224 48.5487Z" fill="#D72323"/>
<path d="M312.714 48.5487C316.477 48.5487 319.527 45.4983 319.527 41.7353C319.527 37.9724 316.477 34.922 312.714 34.922C308.951 34.922 305.9 37.9724 305.9 41.7353C305.9 45.4983 308.951 48.5487 312.714 48.5487Z" fill="#E6E6E6"/>
<path d="M381.692 48.5487C385.455 48.5487 388.506 45.4983 388.506 41.7353C388.506 37.9724 385.455 34.922 381.692 34.922C377.929 34.922 374.879 37.9724 374.879 41.7353C374.879 45.4983 377.929 48.5487 381.692 48.5487Z" fill="#E6E6E6"/>
<path d="M174.757 83.4706C178.52 83.4706 181.57 80.4201 181.57 76.6572C181.57 72.8943 178.52 69.8439 174.757 69.8439C170.994 69.8439 167.943 72.8943 167.943 76.6572C167.943 80.4201 170.994 83.4706 174.757 83.4706Z" fill="#E6E6E6"/>
<path d="M209.247 83.4706C213.01 83.4706 216.06 80.4201 216.06 76.6572C216.06 72.8943 213.01 69.8439 209.247 69.8439C205.484 69.8439 202.434 72.8943 202.434 76.6572C202.434 80.4201 205.484 83.4706 209.247 83.4706Z" fill="#E6E6E6"/>
<path d="M243.735 83.4706C247.498 83.4706 250.549 80.4201 250.549 76.6572C250.549 72.8943 247.498 69.8439 243.735 69.8439C239.972 69.8439 236.922 72.8943 236.922 76.6572C236.922 80.4201 239.972 83.4706 243.735 83.4706Z" fill="#E6E6E6"/>
<path d="M278.224 83.4706C281.986 83.4706 285.037 80.4201 285.037 76.6572C285.037 72.8943 281.986 69.8439 278.224 69.8439C274.461 69.8439 271.41 72.8943 271.41 76.6572C271.41 80.4201 274.461 83.4706 278.224 83.4706Z" fill="#E6E6E6"/>
<path d="M312.714 83.4706C316.477 83.4706 319.527 80.4201 319.527 76.6572C319.527 72.8943 316.477 69.8439 312.714 69.8439C308.951 69.8439 305.9 72.8943 305.9 76.6572C305.9 80.4201 308.951 83.4706 312.714 83.4706Z" fill="#E6E6E6"/>
<path d="M174.757 118.393C178.52 118.393 181.57 115.342 181.57 111.579C181.57 107.816 178.52 104.766 174.757 104.766C170.994 104.766 167.943 107.816 167.943 111.579C167.943 115.342 170.994 118.393 174.757 118.393Z" fill="#E6E6E6"/>
<path d="M209.247 118.393C213.01 118.393 216.06 115.342 216.06 111.579C216.06 107.816 213.01 104.766 209.247 104.766C205.484 104.766 202.434 107.816 202.434 111.579C202.434 115.342 205.484 118.393 209.247 118.393Z" fill="#E6E6E6"/>
<path d="M243.735 118.393C247.498 118.393 250.549 115.342 250.549 111.579C250.549 107.816 247.498 104.766 243.735 104.766C239.972 104.766 236.922 107.816 236.922 111.579C236.922 115.342 239.972 118.393 243.735 118.393Z" fill="#E6E6E6"/>
<path d="M278.224 118.393C281.986 118.393 285.037 115.342 285.037 111.579C285.037 107.816 281.986 104.766 278.224 104.766C274.461 104.766 271.41 107.816 271.41 111.579C271.41 115.342 274.461 118.393 278.224 118.393Z" fill="#E6E6E6"/>
<path d="M312.714 118.393C316.477 118.393 319.527 115.342 319.527 111.579C319.527 107.816 316.477 104.766 312.714 104.766C308.951 104.766 305.9 107.816 305.9 111.579C305.9 115.342 308.951 118.393 312.714 118.393Z" fill="#E6E6E6"/>
<path d="M347.202 118.393C350.965 118.393 354.015 115.342 354.015 111.579C354.015 107.816 350.965 104.766 347.202 104.766C343.439 104.766 340.389 107.816 340.389 111.579C340.389 115.342 343.439 118.393 347.202 118.393Z" fill="#E6E6E6"/>
<path d="M381.692 118.393C385.455 118.393 388.506 115.342 388.506 111.579C388.506 107.816 385.455 104.766 381.692 104.766C377.929 104.766 374.879 107.816 374.879 111.579C374.879 115.342 377.929 118.393 381.692 118.393Z" fill="#E6E6E6"/>
<path d="M416.181 118.393C419.943 118.393 422.994 115.342 422.994 111.579C422.994 107.816 419.943 104.766 416.181 104.766C412.418 104.766 409.367 107.816 409.367 111.579C409.367 115.342 412.418 118.393 416.181 118.393Z" fill="#E6E6E6"/>
<path d="M450.669 118.393C454.432 118.393 457.482 115.342 457.482 111.579C457.482 107.816 454.432 104.766 450.669 104.766C446.906 104.766 443.855 107.816 443.855 111.579C443.855 115.342 446.906 118.393 450.669 118.393Z" fill="#E6E6E6"/>
<path d="M485.159 118.393C488.922 118.393 491.972 115.342 491.972 111.579C491.972 107.816 488.922 104.766 485.159 104.766C481.396 104.766 478.346 107.816 478.346 111.579C478.346 115.342 481.396 118.393 485.159 118.393Z" fill="#E6E6E6"/>
<path d="M312.714 153.314C316.477 153.314 319.527 150.264 319.527 146.501C319.527 142.738 316.477 139.688 312.714 139.688C308.951 139.688 305.9 142.738 305.9 146.501C305.9 150.264 308.951 153.314 312.714 153.314Z" fill="#E6E6E6"/>
<path d="M347.202 153.314C350.965 153.314 354.015 150.264 354.015 146.501C354.015 142.738 350.965 139.688 347.202 139.688C343.439 139.688 340.389 142.738 340.389 146.501C340.389 150.264 343.439 153.314 347.202 153.314Z" fill="#D72323"/>
<path d="M381.692 153.314C385.455 153.314 388.506 150.264 388.506 146.501C388.506 142.738 385.455 139.688 381.692 139.688C377.929 139.688 374.879 142.738 374.879 146.501C374.879 150.264 377.929 153.314 381.692 153.314Z" fill="#E6E6E6"/>
<path d="M416.181 153.314C419.943 153.314 422.994 150.264 422.994 146.501C422.994 142.738 419.943 139.688 416.181 139.688C412.418 139.688 409.367 142.738 409.367 146.501C409.367 150.264 412.418 153.314 416.181 153.314Z" fill="#E6E6E6"/>
<path d="M450.669 153.314C454.432 153.314 457.482 150.264 457.482 146.501C457.482 142.738 454.432 139.688 450.669 139.688C446.906 139.688 443.855 142.738 443.855 146.501C443.855 150.264 446.906 153.314 450.669 153.314Z" fill="#E6E6E6"/>
<path d="M485.159 153.314C488.922 153.314 491.972 150.264 491.972 146.501C491.972 142.738 488.922 139.688 485.159 139.688C481.396 139.688 478.346 142.738 478.346 146.501C478.346 150.264 481.396 153.314 485.159 153.314Z" fill="#E6E6E6"/>
<path d="M312.714 188.236C316.477 188.236 319.527 185.186 319.527 181.423C319.527 177.66 316.477 174.61 312.714 174.61C308.951 174.61 305.9 177.66 305.9 181.423C305.9 185.186 308.951 188.236 312.714 188.236Z" fill="#E6E6E6"/>
<path d="M347.202 188.236C350.965 188.236 354.015 185.186 354.015 181.423C354.015 177.66 350.965 174.61 347.202 174.61C343.439 174.61 340.389 177.66 340.389 181.423C340.389 185.186 343.439 188.236 347.202 188.236Z" fill="#E6E6E6"/>
<path d="M381.692 188.236C385.455 188.236 388.506 185.186 388.506 181.423C388.506 177.66 385.455 174.61 381.692 174.61C377.929 174.61 374.879 177.66 374.879 181.423C374.879 185.186 377.929 188.236 381.692 188.236Z" fill="#E6E6E6"/>
<path d="M416.181 188.236C419.943 188.236 422.994 185.186 422.994 181.423C422.994 177.66 419.943 174.61 416.181 174.61C412.418 174.61 409.367 177.66 409.367 181.423C409.367 185.186 412.418 188.236 416.181 188.236Z" fill="#E6E6E6"/>
<path d="M450.669 188.236C454.432 188.236 457.482 185.186 457.482 181.423C457.482 177.66 454.432 174.61 450.669 174.61C446.906 174.61 443.855 177.66 443.855 181.423C443.855 185.186 446.906 188.236 450.669 188.236Z" fill="#D72323"/>
<path d="M485.159 188.236C488.922 188.236 491.972 185.186 491.972 181.423C491.972 177.66 488.922 174.61 485.159 174.61C481.396 174.61 478.346 177.66 478.346 181.423C478.346 185.186 481.396 188.236 485.159 188.236Z" fill="#E6E6E6"/>
<path d="M312.714 223.158C316.477 223.158 319.527 220.108 319.527 216.345C319.527 212.582 316.477 209.532 312.714 209.532C308.951 209.532 305.9 212.582 305.9 216.345C305.9 220.108 308.951 223.158 312.714 223.158Z" fill="#E6E6E6"/>
<path d="M347.202 223.158C350.965 223.158 354.015 220.108 354.015 216.345C354.015 212.582 350.965 209.532 347.202 209.532C343.439 209.532 340.389 212.582 340.389 216.345C340.389 220.108 343.439 223.158 347.202 223.158Z" fill="#E6E6E6"/>
<path d="M381.692 223.158C385.455 223.158 388.506 220.108 388.506 216.345C388.506 212.582 385.455 209.532 381.692 209.532C377.929 209.532 374.879 212.582 374.879 216.345C374.879 220.108 377.929 223.158 381.692 223.158Z" fill="#E6E6E6"/>
<path d="M416.181 223.158C419.943 223.158 422.994 220.108 422.994 216.345C422.994 212.582 419.943 209.532 416.181 209.532C412.418 209.532 409.367 212.582 409.367 216.345C409.367 220.108 412.418 223.158 416.181 223.158Z" fill="#E6E6E6"/>
<path d="M450.669 223.158C454.432 223.158 457.482 220.108 457.482 216.345C457.482 212.582 454.432 209.532 450.669 209.532C446.906 209.532 443.855 212.582 443.855 216.345C443.855 220.108 446.906 223.158 450.669 223.158Z" fill="#E6E6E6"/>
<path d="M485.159 223.158C488.922 223.158 491.972 220.108 491.972 216.345C491.972 212.582 488.922 209.532 485.159 209.532C481.396 209.532 478.346 212.582 478.346 216.345C478.346 220.108 481.396 223.158 485.159 223.158Z" fill="#E6E6E6"/>
<path d="M174.757 258.08C178.52 258.08 181.57 255.03 181.57 251.267C181.57 247.504 178.52 244.454 174.757 244.454C170.994 244.454 167.943 247.504 167.943 251.267C167.943 255.03 170.994 258.08 174.757 258.08Z" fill="#E6E6E6"/>
<path d="M209.247 258.08C213.01 258.08 216.06 255.03 216.06 251.267C216.06 247.504 213.01 244.454 209.247 244.454C205.484 244.454 202.434 247.504 202.434 251.267C202.434 255.03 205.484 258.08 209.247 258.08Z" fill="#E6E6E6"/>
<path d="M243.735 258.08C247.498 258.08 250.549 255.03 250.549 251.267C250.549 247.504 247.498 244.454 243.735 244.454C239.972 244.454 236.922 247.504 236.922 251.267C236.922 255.03 239.972 258.08 243.735 258.08Z" fill="#E6E6E6"/>
<path d="M278.224 258.08C281.986 258.08 285.037 255.03 285.037 251.267C285.037 247.504 281.986 244.454 278.224 244.454C274.461 244.454 271.41 247.504 271.41 251.267C271.41 255.03 274.461 258.08 278.224 258.08Z" fill="#E6E6E6"/>
<path d="M312.714 258.08C316.477 258.08 319.527 255.03 319.527 251.267C319.527 247.504 316.477 244.454 312.714 244.454C308.951 244.454 305.9 247.504 305.9 251.267C305.9 255.03 308.951 258.08 312.714 258.08Z" fill="#E6E6E6"/>
<path d="M347.202 258.08C350.965 258.08 354.015 255.03 354.015 251.267C354.015 247.504 350.965 244.454 347.202 244.454C343.439 244.454 340.389 247.504 340.389 251.267C340.389 255.03 343.439 258.08 347.202 258.08Z" fill="#E6E6E6"/>
<path d="M381.692 258.08C385.455 258.08 388.506 255.03 388.506 251.267C388.506 247.504 385.455 244.454 381.692 244.454C377.929 244.454 374.879 247.504 374.879 251.267C374.879 255.03 377.929 258.08 381.692 258.08Z" fill="#E6E6E6"/>
<path d="M416.181 258.08C419.943 258.08 422.994 255.03 422.994 251.267C422.994 247.504 419.943 244.454 416.181 244.454C412.418 244.454 409.367 247.504 409.367 251.267C409.367 255.03 412.418 258.08 416.181 258.08Z" fill="#E6E6E6"/>
<path d="M450.669 258.08C454.432 258.08 457.482 255.03 457.482 251.267C457.482 247.504 454.432 244.454 450.669 244.454C446.906 244.454 443.855 247.504 443.855 251.267C443.855 255.03 446.906 258.08 450.669 258.08Z" fill="#E6E6E6"/>
<path d="M485.159 258.08C488.922 258.08 491.972 255.03 491.972 251.267C491.972 247.504 488.922 244.454 485.159 244.454C481.396 244.454 478.346 247.504 478.346 251.267C478.346 255.03 481.396 258.08 485.159 258.08Z" fill="#E6E6E6"/>
<path d="M174.753 293.001C178.516 293.001 181.566 289.951 181.566 286.188C181.566 282.425 178.516 279.375 174.753 279.375C170.99 279.375 167.939 282.425 167.939 286.188C167.939 289.951 170.99 293.001 174.753 293.001Z" fill="#E6E6E6"/>
<path d="M209.247 293.002C213.01 293.002 216.06 289.952 216.06 286.189C216.06 282.426 213.01 279.376 209.247 279.376C205.484 279.376 202.434 282.426 202.434 286.189C202.434 289.952 205.484 293.002 209.247 293.002Z" fill="#E6E6E6"/>
<path d="M174.753 327.923C178.516 327.923 181.566 324.872 181.566 321.11C181.566 317.347 178.516 314.296 174.753 314.296C170.99 314.296 167.939 317.347 167.939 321.11C167.939 324.872 170.99 327.923 174.753 327.923Z" fill="#E6E6E6"/>
<path d="M209.247 327.924C213.01 327.924 216.06 324.874 216.06 321.111C216.06 317.348 213.01 314.297 209.247 314.297C205.484 314.297 202.434 317.348 202.434 321.111C202.434 324.874 205.484 327.924 209.247 327.924Z" fill="#E6E6E6"/>
<path d="M278.224 327.924C281.986 327.924 285.037 324.874 285.037 321.111C285.037 317.348 281.986 314.297 278.224 314.297C274.461 314.297 271.41 317.348 271.41 321.111C271.41 324.874 274.461 327.924 278.224 327.924Z" fill="#E6E6E6"/>
<path d="M622.001 80.3839H352C350.674 80.3823 349.404 79.855 348.466 78.9177C347.529 77.9803 347.002 76.7095 347 75.3839V8.40833C347.002 7.08272 347.529 5.81186 348.466 4.87451C349.404 3.93717 350.674 3.40988 352 3.40833H622.001C623.326 3.40988 624.597 3.93717 625.534 4.87451C626.472 5.81186 626.999 7.08272 627.001 8.40833V75.3839C626.999 76.7095 626.472 77.9804 625.534 78.9177C624.597 79.855 623.326 80.3823 622.001 80.3839ZM352 5.40833C351.205 5.40919 350.442 5.72554 349.88 6.28796C349.317 6.85038 349.001 7.61294 349 8.40833V75.3839C349.001 76.1793 349.317 76.9418 349.88 77.5043C350.442 78.0667 351.205 78.383 352 78.3839H622.001C622.796 78.383 623.559 78.0667 624.121 77.5043C624.683 76.9418 625 76.1793 625.001 75.3839V8.40833C625 7.61294 624.683 6.85038 624.121 6.28796C623.559 5.72554 622.796 5.40919 622.001 5.40833H352Z" fill="#E6E6E6"/>
<path d="M387 62.8959C398.598 62.8959 408 53.4939 408 41.8959C408 30.2979 398.598 20.8959 387 20.8959C375.402 20.8959 366 30.2979 366 41.8959C366 53.4939 375.402 62.8959 387 62.8959Z" fill="#D72323"/>
<path d="M435.5 27.8959C434.572 27.8959 433.682 28.2646 433.025 28.921C432.369 29.5774 432 30.4676 432 31.3959C432 32.3241 432.369 33.2144 433.025 33.8707C433.682 34.5271 434.572 34.8959 435.5 34.8959H528.5C529.428 34.8959 530.319 34.5271 530.975 33.8707C531.631 33.2144 532 32.3241 532 31.3959C532 30.4676 531.631 29.5774 530.975 28.921C530.319 28.2646 529.428 27.8959 528.5 27.8959H435.5Z" fill="#E6E6E6"/>
<path d="M435.5 48.8959C434.572 48.8959 433.682 49.2646 433.025 49.921C432.369 50.5774 432 51.4676 432 52.3959C432 53.3241 432.369 54.2144 433.025 54.8707C433.682 55.5271 434.572 55.8959 435.5 55.8959H600.5C601.428 55.8959 602.319 55.5271 602.975 54.8707C603.631 54.2144 604 53.3241 604 52.3959C604 51.4676 603.631 50.5774 602.975 49.921C602.319 49.2646 601.428 48.8959 600.5 48.8959H435.5Z" fill="#E6E6E6"/>
<path d="M275 216.384H5C3.67439 216.382 2.40353 215.855 1.46619 214.918C0.528841 213.98 0.00155353 212.709 0 211.384V144.408C0.00155353 143.083 0.528841 141.812 1.46619 140.875C2.40353 139.937 3.67439 139.41 5 139.408H275C276.326 139.41 277.597 139.937 278.534 140.875C279.472 141.812 279.999 143.083 280 144.408V211.384C279.999 212.71 279.472 213.98 278.534 214.918C277.597 215.855 276.326 216.382 275 216.384ZM5 141.408C4.20462 141.409 3.44206 141.726 2.87964 142.288C2.31722 142.85 2.00087 143.613 2 144.408V211.384C2.00087 212.179 2.31722 212.942 2.87964 213.504C3.44206 214.067 4.20462 214.383 5 214.384H275C275.796 214.383 276.558 214.067 277.121 213.504C277.683 212.942 278 212.179 278 211.384V144.408C278 143.613 277.683 142.85 277.121 142.288C276.558 141.726 275.796 141.409 275 141.408H5Z" fill="#E6E6E6"/>
<path d="M40 198.896C51.598 198.896 61 189.494 61 177.896C61 166.298 51.598 156.896 40 156.896C28.402 156.896 19 166.298 19 177.896C19 189.494 28.402 198.896 40 198.896Z" fill="#D72323"/>
<path d="M88.5 163.896C87.5717 163.896 86.6815 164.265 86.0251 164.921C85.3687 165.577 85 166.468 85 167.396C85 168.324 85.3687 169.214 86.0251 169.871C86.6815 170.527 87.5717 170.896 88.5 170.896H185.5C186.428 170.896 187.319 170.527 187.975 169.871C188.631 169.214 189 168.324 189 167.396C189 166.468 188.631 165.577 187.975 164.921C187.319 164.265 186.428 163.896 185.5 163.896H88.5Z" fill="#E6E6E6"/>
<path d="M88.5 184.896C87.5717 184.896 86.6815 185.265 86.0251 185.921C85.3687 186.577 85 187.468 85 188.396C85 189.324 85.3687 190.214 86.0251 190.871C86.6815 191.527 87.5717 191.896 88.5 191.896H253.5C254.428 191.896 255.319 191.527 255.975 190.871C256.631 190.214 257 189.324 257 188.396C257 187.468 256.631 186.577 255.975 185.921C255.319 185.265 254.428 184.896 253.5 184.896H88.5Z" fill="#E6E6E6"/>
<path d="M519 363.384H249C247.674 363.382 246.404 362.855 245.466 361.918C244.529 360.98 244.002 359.71 244 358.384V291.408C244.002 290.083 244.529 288.812 245.466 287.875C246.404 286.937 247.674 286.41 249 286.408H519C520.326 286.41 521.597 286.937 522.534 287.875C523.472 288.812 523.999 290.083 524 291.408V358.384C523.999 359.71 523.472 360.98 522.534 361.918C521.597 362.855 520.326 363.382 519 363.384ZM249 288.408C248.205 288.409 247.442 288.726 246.88 289.288C246.317 289.851 246.001 290.613 246 291.408V358.384C246.001 359.179 246.317 359.942 246.88 360.504C247.442 361.067 248.205 361.383 249 361.384H519C519.796 361.383 520.558 361.067 521.121 360.504C521.683 359.942 522 359.179 522 358.384V291.408C522 290.613 521.683 289.851 521.121 289.288C520.558 288.726 519.796 288.409 519 288.408H249Z" fill="#3F3D56"/>
<path d="M284 345.896C295.598 345.896 305 336.494 305 324.896C305 313.298 295.598 303.896 284 303.896C272.402 303.896 263 313.298 263 324.896C263 336.494 272.402 345.896 284 345.896Z" fill="#D72323"/>
<path d="M332.5 310.896C331.572 310.896 330.682 311.265 330.025 311.921C329.369 312.577 329 313.468 329 314.396C329 315.324 329.369 316.214 330.025 316.871C330.682 317.527 331.572 317.896 332.5 317.896H421.5C422.428 317.896 423.319 317.527 423.975 316.871C424.631 316.214 425 315.324 425 314.396C425 313.468 424.631 312.577 423.975 311.921C423.319 311.265 422.428 310.896 421.5 310.896H332.5Z" fill="#E6E6E6"/>
<path d="M332.5 331.896C331.572 331.896 330.682 332.265 330.025 332.921C329.369 333.577 329 334.468 329 335.396C329 336.324 329.369 337.214 330.025 337.871C330.682 338.527 331.572 338.896 332.5 338.896H497.5C498.428 338.896 499.319 338.527 499.975 337.871C500.631 337.214 501 336.324 501 335.396C501 334.468 500.631 333.577 499.975 332.921C499.319 332.265 498.428 331.896 497.5 331.896H332.5Z" fill="#E6E6E6"/>
<path d="M664.25 346.398C652.524 381.575 604.555 344.266 604.555 344.266L617.346 211.019C636.534 196.095 656.788 208.887 656.788 208.887L664.25 346.398Z" fill="#E6E6E6"/>
<path d="M661.73 464.458L678.075 464.63L673.992 511.745L661.732 511.746L661.73 464.458Z" fill="#FFB8B8"/>
<path d="M658.605 507.742H682.749C686.829 507.747 690.74 509.37 693.624 512.254C696.509 515.139 698.132 519.05 698.136 523.129V523.629H658.605V507.742Z" fill="#2F2E41"/>
<path d="M617.42 464.458L599.326 464.457L605.158 511.745L617.418 511.746L617.42 464.458Z" fill="#FFB8B8"/>
<path d="M581.016 523.629V523.129C581.016 519.048 582.637 515.134 585.523 512.249C588.408 509.363 592.322 507.742 596.403 507.742L620.547 507.743L620.546 523.631L581.016 523.629Z" fill="#2F2E41"/>
<path d="M660.627 503.584L639.214 378.761L619.375 501.975L599.274 503.092L593.914 338.006L594.318 337.915C597.641 337.171 675.855 319.992 688.677 344.568L688.742 344.692L678.04 504.145L660.627 503.584Z" fill="#2F2E41"/>
<path d="M637.934 195.404C651.499 195.404 662.495 184.407 662.495 170.843C662.495 157.278 651.499 146.281 637.934 146.281C624.369 146.281 613.373 157.278 613.373 170.843C613.373 184.407 624.369 195.404 637.934 195.404Z" fill="#FFB8B8"/>
<path d="M658.567 356.925C655.688 356.127 653.614 352.821 652.038 346.519C651.767 345.433 626.266 236.808 647.831 217.128L652.802 203.32L659.605 207.855C662.012 207.877 686.626 208.5 688.729 224.278C690.789 239.721 696.395 343.191 690.76 349.627C690.649 349.768 690.509 349.884 690.349 349.965C690.188 350.046 690.012 350.091 689.833 350.096C684.122 350.096 682.388 343.76 681.981 341.74C680.623 342.302 676.579 344.369 669.933 351.015C665.816 355.133 662.587 357.106 659.92 357.106C659.463 357.107 659.008 357.046 658.567 356.925Z" fill="#2F2E41"/>
<path d="M605.268 351.015C598.62 344.367 594.575 342.301 593.219 341.74C592.812 343.759 591.079 350.096 585.368 350.096C585.188 350.091 585.012 350.046 584.852 349.965C584.692 349.884 584.551 349.768 584.441 349.627C578.806 343.191 584.412 239.721 586.471 224.278C588.575 208.5 613.189 207.877 615.596 207.855L622.398 203.32L627.369 217.128C648.933 236.806 623.434 345.433 623.162 346.519C621.587 352.821 619.512 356.127 616.633 356.925C616.193 357.046 615.737 357.107 615.28 357.106C612.613 357.106 609.385 355.132 605.268 351.015Z" fill="#2F2E41"/>
<path d="M658.211 184.872C662.366 181.883 665.512 177.7 667.232 172.88C668.952 168.059 669.163 162.829 667.838 157.885C666.512 152.942 663.714 148.519 659.813 145.204C655.913 141.89 651.096 139.842 646.003 139.332C643.742 139.106 641.307 139.14 639.432 137.855C637.767 136.715 636.87 134.736 635.34 133.42C634.367 132.668 633.25 132.125 632.059 131.824C630.867 131.524 629.626 131.472 628.413 131.674C625.993 132.091 623.647 132.862 621.451 133.961C616.005 136.39 610.215 139.378 607.737 144.801C605.59 149.499 606.538 155.292 609.577 159.469C612.772 163.602 617.431 166.353 622.593 167.154C627.725 167.921 632.966 167.449 637.878 165.778C641.12 164.758 644.32 163.368 647.716 163.254C650.367 163.166 652.984 163.868 655.235 165.271C657.486 166.674 659.269 168.715 660.356 171.134C661.444 173.553 661.787 176.241 661.343 178.856C660.899 181.471 659.687 183.894 657.861 185.818" fill="#2F2E41"/>
<path d="M524.34 330.981C525.758 330.948 527.156 330.637 528.454 330.064C529.751 329.49 530.923 328.668 531.902 327.642C532.882 326.616 533.65 325.407 534.162 324.084C534.674 322.762 534.921 321.351 534.888 319.933L549.211 295.767L538.145 285.621L523.057 309.431C520.273 309.699 517.701 311.036 515.883 313.161C514.065 315.286 513.142 318.033 513.308 320.825C513.474 323.617 514.717 326.235 516.775 328.13C518.832 330.024 521.544 331.046 524.34 330.981Z" fill="#FFB8B8"/>
<path d="M690.514 357.456C691.703 356.681 692.727 355.68 693.528 354.51C694.329 353.34 694.892 352.023 695.185 350.635C695.477 349.247 695.493 347.815 695.232 346.421C694.971 345.027 694.438 343.698 693.664 342.509L693.115 314.423L678.365 311.625L678.076 339.811C675.85 341.505 674.368 343.995 673.941 346.759C673.514 349.523 674.176 352.345 675.788 354.631C677.399 356.917 679.834 358.489 682.581 359.015C685.327 359.542 688.171 358.983 690.514 357.456Z" fill="#FFB8B8"/>
<path d="M528.698 292.124L528.531 291.858L528.697 291.592C550.18 257.094 595.276 213.999 595.729 213.568L595.871 213.432L601.441 213.375L607.462 228.375C605.588 231.981 555.066 302.485 548.395 307.161C547.864 307.529 547.262 307.78 546.627 307.9C545.992 308.02 545.339 308.004 544.711 307.855C543.599 307.599 542.541 307.148 541.586 306.524C535.43 302.711 529.013 292.623 528.698 292.124Z" fill="#2F2E41"/>
<path d="M675.558 331.491C674.959 331.286 674.41 330.96 673.944 330.532C673.478 330.105 673.106 329.585 672.851 329.006C669.635 321.501 683.42 226.704 684.009 222.672L684.12 221.909L688.78 224.863L688.826 225.064C688.964 225.669 702.539 286.061 698.859 326.19L698.833 326.477L698.571 326.598C698.011 326.858 686.703 332.051 679.167 332.051C677.94 332.083 676.718 331.893 675.558 331.491Z" fill="#2F2E41"/>
<path d="M768.412 524.375H502.412C502.147 524.375 501.892 524.269 501.705 524.082C501.517 523.894 501.412 523.64 501.412 523.375C501.412 523.11 501.517 522.855 501.705 522.668C501.892 522.48 502.147 522.375 502.412 522.375H768.412C768.677 522.375 768.932 522.48 769.119 522.668C769.307 522.855 769.412 523.11 769.412 523.375C769.412 523.64 769.307 523.894 769.119 524.082C768.932 524.269 768.677 524.375 768.412 524.375Z" fill="#3F3D56"/>
</g>
<defs>
<clipPath id="clip0">
<rect width="769.411" height="524.375" fill="white"/>
</clipPath>
</defs>
</svg>
