<svg width="713" height="502" viewBox="0 0 713 502" fill="none" xmlns="http://www.w3.org/2000/svg">
<g clip-path="url(#clip0)">
<path d="M364.146 500.936C385.59 500.936 402.975 483.568 402.975 462.143C402.975 440.718 385.59 423.35 364.146 423.35C342.701 423.35 325.316 440.718 325.316 462.143C325.316 483.568 342.701 500.936 364.146 500.936Z" fill="#FF6363"/>
<path d="M596.112 498.757C617.835 492.239 640.929 485.442 658.157 469.948C673.551 456.102 683.944 434.959 677.567 414.194C671.202 393.472 652.139 379.655 632.456 372.782C621.293 368.884 609.614 366.722 597.939 365.023C585.248 363.177 572.501 361.664 559.76 360.208C508.169 354.313 456.385 350.711 404.406 349.404C378.758 348.759 353.115 348.774 327.463 349.146C304.555 349.478 280.428 349.47 259.176 339.743C242.649 332.178 227.65 318.416 223.045 300.331C217.729 279.455 227.534 258.195 241.598 243.076C249.012 235.106 257.677 228.399 266.615 222.231C276.311 215.54 286.346 209.323 296.598 203.519C316.79 192.094 337.901 182.371 359.71 174.451C370.468 170.543 381.387 167.171 392.4 164.06C401.7 161.433 411.028 158.803 420.016 155.224C437.391 148.306 453.916 136.587 458.334 117.374C462.521 99.1657 455.462 79.3987 443.085 65.8719C428.767 50.2223 407.177 43.362 386.479 42.252C363.242 41.0058 340.54 46.8161 318.7 54.19C295.405 62.0548 272.612 71.098 248.826 77.4685C225.238 83.7795 201.193 88.2448 176.911 90.8239C165.024 92.0885 152.778 93.5164 140.82 92.5483C130.798 91.7369 120.828 88.7923 113.442 81.6865C107.109 75.5937 103.336 67.2201 104.633 58.3834C104.869 56.7784 107.309 57.4608 107.075 59.056C105.496 69.8127 112.815 79.7248 121.834 84.8022C132.257 90.6703 144.941 90.6783 156.545 90.0072C181.707 88.4889 206.699 84.8794 231.261 79.2163C255.396 73.7089 278.67 65.8358 301.917 57.4255C323.995 49.4379 346.567 41.642 370.155 39.9119C390.621 38.4107 412.151 41.3896 429.98 52.0753C445.65 61.4666 457.173 77.1282 460.845 95.1003C464.433 112.662 459.464 130.339 446.157 142.594C432.38 155.283 413.49 160.708 395.885 165.704C373.556 172.041 351.707 179.449 330.557 189.067C309.12 198.789 288.56 210.337 269.106 223.583C250.327 236.403 231.796 252.535 225.856 275.406C223.09 286.06 223.601 297.36 228.23 307.423C232.346 316.37 239.124 323.897 247.021 329.702C265.862 343.553 289.609 346.397 312.367 346.68C337.928 346.998 363.49 346.136 389.059 346.555C441.168 347.41 493.171 350.579 545.067 356.062C558.07 357.437 571.058 358.957 584.029 360.622C595.696 362.12 607.402 363.608 618.872 366.268C639.268 370.997 659.114 380.091 671.791 397.368C677.417 404.856 680.903 413.731 681.876 423.044C682.763 432.762 680.382 442.499 675.984 451.144C666.249 470.28 648.015 482.451 628.652 490.447C618.28 494.73 607.522 497.975 596.785 501.196C595.221 501.666 594.553 499.225 596.112 498.757L596.112 498.757Z" fill="#F2F2F2"/>
<path d="M106.266 78.851C117.455 78.851 126.525 69.7893 126.525 58.6112C126.525 47.433 117.455 38.3713 106.266 38.3713C95.0779 38.3713 86.0078 47.433 86.0078 58.6112C86.0078 69.7893 95.0779 78.851 106.266 78.851Z" fill="#F2F2F2"/>
<path d="M246.813 117.222C258.002 117.222 267.072 108.161 267.072 96.9825C267.072 85.8044 258.002 76.7427 246.813 76.7427C235.625 76.7427 226.555 85.8044 226.555 96.9825C226.555 108.161 235.625 117.222 246.813 117.222Z" fill="#F2F2F2"/>
<path d="M365.833 40.4797C377.021 40.4797 386.092 31.418 386.092 20.2398C386.092 9.06169 377.021 0 365.833 0C354.644 0 345.574 9.06169 345.574 20.2398C345.574 31.418 354.644 40.4797 365.833 40.4797Z" fill="#F2F2F2"/>
<path d="M440.114 126.499C451.303 126.499 460.373 117.437 460.373 106.259C460.373 95.081 451.303 86.0193 440.114 86.0193C428.926 86.0193 419.855 95.081 419.855 106.259C419.855 117.437 428.926 126.499 440.114 126.499Z" fill="#F2F2F2"/>
<path d="M339.665 226.011C350.853 226.011 359.924 216.95 359.924 205.772C359.924 194.593 350.853 185.532 339.665 185.532C328.476 185.532 319.406 194.593 319.406 205.772C319.406 216.95 328.476 226.011 339.665 226.011Z" fill="#F2F2F2"/>
<path d="M212.204 274.081C223.393 274.081 232.463 265.02 232.463 253.841C232.463 242.663 223.393 233.602 212.204 233.602C201.015 233.602 191.945 242.663 191.945 253.841C191.945 265.02 201.015 274.081 212.204 274.081Z" fill="#F2F2F2"/>
<path d="M347.263 349.137C358.451 349.137 367.521 340.076 367.521 328.898C367.521 317.719 358.451 308.658 347.263 308.658C336.074 308.658 327.004 317.719 327.004 328.898C327.004 340.076 336.074 349.137 347.263 349.137Z" fill="#F2F2F2"/>
<path d="M492.45 391.303C503.639 391.303 512.709 382.242 512.709 371.064C512.709 359.885 503.639 350.824 492.45 350.824C481.262 350.824 472.191 359.885 472.191 371.064C472.191 382.242 481.262 391.303 492.45 391.303Z" fill="#F2F2F2"/>
<path d="M662.114 382.027C673.303 382.027 682.373 372.965 682.373 361.787C682.373 350.609 673.303 341.547 662.114 341.547C650.926 341.547 641.855 350.609 641.855 361.787C641.855 372.965 650.926 382.027 662.114 382.027Z" fill="#F2F2F2"/>
<path d="M359.984 57.3491C299.3 57.7774 249.612 107.046 248.75 167.67C248.742 168.23 248.738 172.165 248.738 177.313C248.739 184.86 251.74 192.098 257.081 197.435C262.423 202.772 269.668 205.771 277.222 205.772H277.222C280.967 205.771 284.675 205.033 288.134 203.6C291.593 202.167 294.736 200.067 297.382 197.42C300.029 194.773 302.127 191.631 303.558 188.173C304.989 184.716 305.723 181.011 305.72 177.269C305.717 173.768 305.715 171.344 305.715 171.195C305.714 161.826 308.153 152.618 312.794 144.476C317.434 136.334 324.116 129.539 332.183 124.76C340.249 119.981 349.422 117.382 358.798 117.219C368.175 117.056 377.432 119.334 385.66 123.83C393.888 128.325 400.803 134.883 405.725 142.859C410.647 150.834 413.405 159.952 413.73 169.316C414.055 178.68 411.934 187.967 407.576 196.263C403.219 204.559 396.774 211.58 388.878 216.633L388.887 216.645C388.887 216.645 348.346 242.721 335.986 278.491L335.997 278.494C333.823 285.821 332.722 293.425 332.727 301.068C332.727 304.209 332.912 331.698 333.269 354.01C333.394 361.708 336.544 369.049 342.038 374.448C347.531 379.847 354.93 382.872 362.636 382.87H362.636C366.509 382.87 370.343 382.105 373.918 380.619C377.493 379.133 380.739 376.955 383.468 374.211C386.198 371.467 388.357 368.211 389.823 364.63C391.288 361.049 392.03 357.214 392.006 353.345C391.882 332.912 391.815 309.12 391.815 307.393C391.815 285.428 413.023 263.544 430.444 249.273C450.505 232.839 464.942 210.443 470.74 185.181C472.023 179.979 472.73 174.653 472.85 169.298C472.85 154.528 469.924 139.904 464.242 126.269C458.56 112.634 450.234 100.257 439.742 89.8507C429.251 79.4447 416.803 71.2155 403.114 65.6374C389.425 60.0593 374.767 57.2424 359.984 57.3491Z" fill="#FF6363"/>
<path d="M711.996 502H1.00607C0.740013 501.999 0.485122 501.893 0.297264 501.705C0.109405 501.517 0.00390625 501.262 0.00390625 500.996C0.00390625 500.73 0.109405 500.475 0.297264 500.287C0.485122 500.099 0.740013 499.992 1.00607 499.992H711.996C712.263 499.992 712.518 500.098 712.707 500.286C712.895 500.474 713.001 500.73 713.001 500.996C713.001 501.262 712.895 501.518 712.707 501.706C712.518 501.894 712.263 502 711.996 502Z" fill="#3F3D56"/>
<path d="M530.48 230.225C544.465 230.225 555.803 218.898 555.803 204.925C555.803 190.952 544.465 179.625 530.48 179.625C516.494 179.625 505.156 190.952 505.156 204.925C505.156 218.898 516.494 230.225 530.48 230.225Z" fill="#2F2E41"/>
<path d="M483.686 490.925H473.338L468.414 451.046H483.688L483.686 490.925Z" fill="#A0616A"/>
<path d="M465.945 487.971H485.903V500.525H453.379C453.379 498.877 453.704 497.244 454.335 495.721C454.967 494.198 455.893 492.814 457.059 491.648C458.226 490.482 459.612 489.557 461.136 488.926C462.661 488.295 464.295 487.971 465.945 487.971Z" fill="#2F2E41"/>
<path d="M563.877 490.925H553.529L548.605 451.046H563.88L563.877 490.925Z" fill="#A0616A"/>
<path d="M546.136 487.971H566.094V500.525H533.57C533.57 498.877 533.895 497.244 534.527 495.721C535.158 494.198 536.084 492.814 537.251 491.648C538.418 490.482 539.803 489.557 541.328 488.926C542.852 488.295 544.486 487.971 546.136 487.971Z" fill="#2F2E41"/>
<path d="M526.631 230.373C538.081 230.373 547.363 221.099 547.363 209.66C547.363 198.22 538.081 188.947 526.631 188.947C515.181 188.947 505.898 198.22 505.898 209.66C505.898 221.099 515.181 230.373 526.631 230.373Z" fill="#A0616A"/>
<path d="M538.989 297.193L548.266 275.899C550.519 270.904 551.164 265.333 550.114 259.956C549.063 254.578 546.367 249.659 542.399 245.877C541.584 245.072 540.719 244.32 539.808 243.625C535.231 240.048 529.59 238.098 523.778 238.084C519.871 238.1 516.013 238.957 512.467 240.598C512.163 240.733 511.868 240.876 511.564 241.019C510.981 241.298 510.408 241.601 509.85 241.913C506.216 243.998 503.124 246.906 500.822 250.405C498.52 253.903 497.073 257.892 496.598 262.052L492.504 296.325C491.474 299.015 454.738 396.166 467.586 470.337C467.723 471.129 468.109 471.856 468.689 472.413C469.269 472.97 470.013 473.327 470.81 473.432L483.835 475.203C484.786 475.333 485.751 475.098 486.536 474.545C487.32 473.993 487.866 473.164 488.064 472.226L509.918 368.151C510.054 367.504 510.403 366.922 510.91 366.497C511.416 366.072 512.051 365.829 512.712 365.806C513.373 365.784 514.022 365.984 514.556 366.374C515.09 366.763 515.478 367.321 515.658 367.957L546.535 477.404C546.755 478.199 547.23 478.9 547.888 479.4C548.545 479.899 549.348 480.17 550.174 480.17C550.42 480.168 550.666 480.146 550.908 480.102L566.819 477.041C567.744 476.868 568.571 476.357 569.138 475.606C569.705 474.856 569.971 473.921 569.884 472.985C567.545 446.934 555.12 316.446 538.989 297.193Z" fill="#2F2E41"/>
<path d="M446.061 226.897C445.917 228.128 446.045 229.376 446.436 230.553C446.828 231.729 447.472 232.806 448.325 233.707C449.177 234.607 450.217 235.311 451.371 235.766C452.525 236.222 453.765 236.42 455.004 236.345L466.593 264.168L475.359 251.186L463.01 226.755C462.746 224.684 461.732 222.782 460.158 221.409C458.585 220.036 456.562 219.287 454.472 219.304C452.383 219.322 450.373 220.105 448.823 221.504C447.273 222.903 446.29 224.822 446.061 226.897L446.061 226.897Z" fill="#A0616A"/>
<path d="M525.485 325.209C526.717 325.062 527.902 324.647 528.956 323.993C530.01 323.339 530.908 322.462 531.586 321.423C532.264 320.385 532.706 319.211 532.881 317.983C533.056 316.756 532.959 315.505 532.598 314.319L556.98 296.577L542.301 291.085L521.397 308.775C519.443 309.514 517.828 310.943 516.858 312.792C515.888 314.64 515.631 316.78 516.135 318.806C516.639 320.832 517.869 322.602 519.592 323.783C521.315 324.963 523.412 325.47 525.485 325.209Z" fill="#A0616A"/>
<path d="M485.736 282.718C484.801 282.717 483.869 282.625 482.952 282.444C480.734 282.022 478.654 281.062 476.896 279.647C475.137 278.233 473.753 276.409 472.867 274.334L456.631 254.555C456.288 254.137 456.038 253.651 455.898 253.128C455.759 252.606 455.732 252.059 455.821 251.526C455.91 250.992 456.112 250.484 456.413 250.035C456.715 249.586 457.109 249.206 457.569 248.921L469.12 241.778C469.546 241.514 470.021 241.337 470.516 241.258C471.011 241.178 471.518 241.197 472.005 241.314C472.493 241.431 472.953 241.643 473.358 241.938C473.763 242.234 474.106 242.606 474.366 243.035L485.809 261.87L507.724 245.689C509.469 244.775 511.484 244.519 513.403 244.967C515.321 245.415 517.014 246.538 518.172 248.13C519.331 249.722 519.877 251.678 519.711 253.639C519.546 255.6 518.679 257.437 517.271 258.812L495.398 278.746C492.828 281.291 489.355 282.719 485.736 282.718Z" fill="#2F2E41"/>
<path d="M544.951 312.464C544.921 312.464 544.891 312.464 544.862 312.463C544.329 312.45 543.805 312.325 543.324 312.097C542.842 311.869 542.414 311.543 542.067 311.139L531.797 299.169C531.448 298.761 531.188 298.284 531.037 297.769C530.885 297.254 530.845 296.713 530.918 296.181C530.992 295.649 531.177 295.139 531.463 294.684C531.748 294.229 532.127 293.839 532.574 293.542L551.804 280.734L534.383 259.809C533.37 258.121 532.998 256.125 533.336 254.186C533.674 252.247 534.699 250.494 536.223 249.247C537.748 248.001 539.671 247.344 541.64 247.397C543.61 247.449 545.494 248.208 546.95 249.535L568.123 270.207C569.789 271.728 571.062 273.63 571.83 275.75C572.599 277.87 572.841 280.145 572.536 282.38C572.231 284.614 571.388 286.741 570.079 288.578C568.77 290.415 567.034 291.907 565.021 292.926L547.715 311.272C547.36 311.648 546.932 311.948 546.456 312.153C545.981 312.358 545.469 312.464 544.951 312.464Z" fill="#2F2E41"/>
<path d="M521.363 268.359C521.198 268.359 521.033 268.348 520.87 268.327C520.155 268.24 519.479 267.95 518.924 267.492C518.369 267.033 517.957 266.425 517.738 265.739L510.021 242.101C509.827 241.504 509.857 240.856 510.104 240.279C510.352 239.702 510.8 239.233 511.366 238.96L511.617 238.842C511.844 238.734 512.069 238.628 512.298 238.525C515.897 236.858 519.814 235.988 523.781 235.976C528.93 235.986 533.965 237.497 538.267 240.325C538.843 240.708 539.246 241.303 539.389 241.98C539.531 242.658 539.401 243.364 539.027 243.946L524.551 266.605C524.211 267.143 523.741 267.586 523.183 267.893C522.626 268.199 521.999 268.36 521.363 268.359Z" fill="#E6E6E6"/>
<path d="M550.446 193.63C555.023 193.63 558.733 189.924 558.733 185.351C558.733 180.779 555.023 177.073 550.446 177.073C545.87 177.073 542.16 180.779 542.16 185.351C542.16 189.924 545.87 193.63 550.446 193.63Z" fill="#2F2E41"/>
<path d="M522.041 176.252C516.22 176.252 510.638 178.562 506.522 182.674C502.406 186.786 500.094 192.363 500.094 198.178V207.455H511.514L516.976 198.178L518.615 207.455H553.273L543.988 198.178C543.988 192.363 541.675 186.786 537.559 182.674C533.444 178.562 527.861 176.252 522.041 176.252Z" fill="#2F2E41"/>
<path d="M554.703 179.681C555.62 176.818 557.517 174.37 560.061 172.767C562.605 171.163 565.634 170.507 568.615 170.914C573.895 171.796 578.071 176.037 580.558 180.773C583.046 185.51 584.195 190.811 585.867 195.892C587.54 200.974 589.912 206.083 594.134 209.372C598.356 212.662 604.835 213.554 608.981 210.17C608.508 213.696 606.936 216.985 604.489 219.57C602.043 222.155 598.844 223.907 595.346 224.576C591.849 225.246 588.229 224.8 584.999 223.301C581.768 221.803 579.092 219.328 577.347 216.226C575.159 212.337 574.594 207.779 573.945 203.365C573.296 198.951 572.453 194.383 569.841 190.765C567.229 187.147 562.339 184.783 558.189 186.431L554.703 179.681Z" fill="#2F2E41"/>
<path d="M285.265 192.311C277.71 192.31 270.466 189.311 265.124 183.974C259.783 178.637 256.781 171.399 256.781 163.852C256.781 158.704 256.784 154.769 256.792 154.209C257.032 136.578 261.477 119.258 269.757 103.687C256.153 122.293 248.672 144.663 248.351 167.702C248.343 168.262 248.339 172.198 248.34 177.345C248.34 184.893 251.341 192.131 256.683 197.468C262.025 202.805 269.269 205.803 276.824 205.804C283.031 205.802 289.069 203.775 294.018 200.032C298.968 196.289 302.559 191.034 304.247 185.066C299.031 189.739 292.27 192.319 285.265 192.311Z" fill="#3F3D56"/>
<path d="M361.916 117.315C370.649 117.731 379.151 120.259 386.69 124.682C394.23 129.104 400.583 135.289 405.204 142.705C409.825 150.12 412.575 158.546 413.218 167.257C413.862 175.969 412.379 184.706 408.898 192.719C413.933 186.811 417.634 179.888 419.748 172.422C421.862 164.956 422.34 157.122 421.149 149.454C419.958 141.787 417.127 134.466 412.847 127.991C408.568 121.516 402.941 116.039 396.351 111.933C389.76 107.828 382.361 105.19 374.658 104.2C366.955 103.21 359.129 103.892 351.714 106.198C344.298 108.504 337.467 112.38 331.687 117.562C325.907 122.745 321.313 129.112 318.219 136.228C323.566 129.943 330.287 124.97 337.864 121.69C345.44 118.411 353.669 116.914 361.916 117.315Z" fill="#3F3D56"/>
<path d="M370.678 369.41C362.972 369.411 355.574 366.386 350.08 360.987C344.586 355.588 341.437 348.247 341.312 340.549C340.954 318.238 340.769 290.749 340.769 287.607C340.764 279.964 341.866 272.361 344.039 265.033L344.029 265.03C345.312 261.352 346.862 257.772 348.666 254.319C343.128 261.694 338.72 269.851 335.588 278.524L335.598 278.526C333.424 285.854 332.323 293.457 332.328 301.1C332.328 304.242 332.513 331.731 332.871 354.042C332.996 361.74 336.145 369.081 341.639 374.48C347.133 379.88 354.531 382.905 362.237 382.903C368.591 382.902 374.774 380.842 379.857 377.034C384.941 373.225 388.651 367.873 390.432 361.779C385.032 366.698 377.986 369.42 370.678 369.41Z" fill="#3F3D56"/>
<path d="M106.815 491.31L117.163 491.309L122.087 451.43L106.812 451.431L106.815 491.31Z" fill="#FFB8B8"/>
<path d="M137.121 500.909L104.597 500.91L104.596 488.356L124.554 488.355C127.887 488.355 131.083 489.677 133.44 492.031C135.797 494.386 137.121 497.579 137.121 500.909L137.121 500.909Z" fill="#2F2E41"/>
<path d="M69.6744 491.31L80.0224 491.309L84.9461 451.43L69.6719 451.431L69.6744 491.31Z" fill="#FFB8B8"/>
<path d="M99.9805 500.909L67.4563 500.91L67.4557 488.356L87.4137 488.355C90.7465 488.355 93.9428 489.677 96.2995 492.031C98.6562 494.386 99.9803 497.579 99.9805 500.909L99.9805 500.909Z" fill="#2F2E41"/>
<path d="M78.7172 479.045L68.6089 478.513C68.0877 478.486 67.5771 478.356 67.1067 478.13C66.6363 477.904 66.2155 477.587 65.8685 477.197C65.5216 476.807 65.2556 476.353 65.0857 475.86C64.9159 475.367 64.8457 474.845 64.8792 474.325L76.9607 340.686L132.597 355.685L137.957 354.224L121.195 472.53C121.052 473.42 120.609 474.235 119.941 474.839C119.272 475.444 118.416 475.803 117.516 475.857L106.619 476.364C106.074 476.394 105.529 476.311 105.018 476.12C104.507 475.929 104.041 475.634 103.65 475.254C103.259 474.874 102.951 474.417 102.745 473.912C102.54 473.407 102.442 472.865 102.457 472.32L104.431 401.315C104.44 400.986 104.326 400.666 104.111 400.418C103.896 400.169 103.595 400.011 103.269 399.972C102.942 399.934 102.613 400.02 102.347 400.212C102.08 400.404 101.895 400.689 101.828 401.011L82.7878 475.909C82.6081 476.797 82.1254 477.596 81.4221 478.169C80.7188 478.742 79.8384 479.054 78.931 479.051C78.8602 479.051 78.7889 479.049 78.7172 479.045Z" fill="#2F2E41"/>
<path d="M108.674 231.341C120.124 231.341 129.406 222.068 129.406 210.629C129.406 199.189 120.124 189.916 108.674 189.916C97.2235 189.916 87.9414 199.189 87.9414 210.629C87.9414 222.068 97.2235 231.341 108.674 231.341Z" fill="#FFB8B8"/>
<path d="M74.1535 271.482L76.4331 320.62L77.2572 338.498C77.29 339.276 77.5545 340.027 78.0168 340.654C78.479 341.281 79.1181 341.756 79.8522 342.019L133.315 361.367C133.747 361.528 134.204 361.608 134.665 361.604C135.192 361.607 135.713 361.503 136.199 361.3C136.685 361.096 137.124 360.797 137.492 360.42C137.859 360.044 138.147 359.596 138.338 359.106C138.528 358.616 138.618 358.092 138.602 357.566L136.41 269.213C136.266 261.964 133.595 254.993 128.858 249.5C124.12 244.008 117.614 240.339 110.459 239.126C109.942 239.047 109.416 238.968 108.889 238.898C104.453 238.348 99.9496 238.775 95.6963 240.151C91.443 241.527 87.5431 243.817 84.2709 246.86C80.8827 249.973 78.2203 253.792 76.4721 258.047C74.7238 262.302 73.9323 266.888 74.1535 271.482L74.1535 271.482Z" fill="#CCCCCC"/>
<path d="M158.857 351.563C157.592 351.171 156.437 350.489 155.483 349.571C154.53 348.654 153.803 347.527 153.363 346.279C152.923 345.032 152.781 343.699 152.948 342.387C153.115 341.074 153.586 339.819 154.325 338.722L136.195 314.636L151.84 313.669L166.658 336.689C168.244 337.915 169.348 339.659 169.776 341.616C170.204 343.573 169.928 345.618 168.998 347.393C168.067 349.167 166.541 350.558 164.686 351.32C162.832 352.083 160.768 352.168 158.857 351.563H158.857Z" fill="#FFB8B8"/>
<path d="M146.11 334.363C145.63 334.168 145.193 333.88 144.825 333.516C144.456 333.151 144.164 332.717 143.965 332.239L116.651 267.223C116.115 265.95 115.836 264.584 115.828 263.203C115.821 261.822 116.086 260.454 116.609 259.175C117.131 257.896 117.901 256.733 118.873 255.752C119.846 254.771 121.003 253.991 122.277 253.456C123.552 252.922 124.919 252.644 126.301 252.637C127.684 252.631 129.054 252.897 130.333 253.42C131.612 253.943 132.776 254.713 133.757 255.685C134.739 256.658 135.519 257.814 136.052 259.088L163.366 324.104C163.77 325.068 163.775 326.153 163.379 327.12C162.983 328.087 162.22 328.858 161.256 329.264L149.13 334.348C148.652 334.55 148.14 334.655 147.621 334.658C147.103 334.66 146.589 334.56 146.11 334.363L146.11 334.363Z" fill="#CCCCCC"/>
<path d="M102.009 332.07L128.243 281.885C128.749 280.919 129.617 280.194 130.658 279.868C131.698 279.542 132.826 279.641 133.793 280.144L171.872 300.013C172.838 300.519 173.564 301.386 173.891 302.426C174.217 303.465 174.118 304.592 173.614 305.558L147.38 355.743C146.874 356.709 146.005 357.434 144.965 357.76C143.924 358.086 142.797 357.987 141.83 357.484L103.75 337.615C102.784 337.109 102.058 336.242 101.732 335.202C101.405 334.163 101.505 333.036 102.009 332.07Z" fill="#3F3D56"/>
<path d="M119.601 309.141C119.135 307.903 118.385 306.791 117.413 305.894C116.44 304.997 115.27 304.34 113.998 303.974C112.725 303.609 111.385 303.546 110.084 303.79C108.783 304.034 107.556 304.578 106.503 305.38L81.367 288.721L81.3242 304.381L105.201 317.8C106.519 319.31 108.327 320.308 110.307 320.619C112.288 320.93 114.316 320.534 116.034 319.501C117.752 318.468 119.051 316.864 119.703 314.969C120.356 313.075 120.319 311.012 119.601 309.141Z" fill="#FFB8B8"/>
<path d="M87.8214 312.663L67.2784 296.406C65.0561 295.66 63.048 294.387 61.4266 292.696C59.8051 291.004 58.6188 288.945 57.9694 286.694C57.3199 284.444 57.2268 282.07 57.698 279.775C58.1692 277.481 59.1906 275.335 60.6746 273.522L79.327 249.1C80.6232 247.517 82.4461 246.454 84.4626 246.103C86.479 245.753 88.5543 246.14 90.309 247.192C92.0637 248.245 93.3807 249.893 94.0192 251.836C94.6577 253.778 94.575 255.886 93.7863 257.773L79.028 281.892L100.717 292.169C101.221 292.408 101.669 292.752 102.031 293.176C102.392 293.601 102.66 294.098 102.815 294.633C102.971 295.169 103.01 295.731 102.932 296.283C102.854 296.836 102.659 297.365 102.361 297.836L93.6062 311.679C93.3102 312.146 92.9193 312.546 92.4588 312.852C91.9984 313.159 91.4786 313.366 90.9331 313.459C90.9114 313.463 90.8896 313.466 90.8678 313.469C90.3319 313.55 89.785 313.52 89.261 313.382C88.737 313.243 88.247 312.999 87.8214 312.663Z" fill="#CCCCCC"/>
<path d="M93.0053 224.498C92.9163 224.238 92.8881 223.961 92.9228 223.689C92.9575 223.416 93.0542 223.155 93.2054 222.926C93.3567 222.696 93.5585 222.504 93.7954 222.365C94.0323 222.225 94.2981 222.142 94.5723 222.121C95.1338 222.151 95.6833 222.295 96.1876 222.544C96.6919 222.792 97.1406 223.14 97.5065 223.567C98.2568 224.431 99.1303 225.181 100.099 225.791C101.102 226.296 102.462 226.224 103.034 225.261C103.571 224.357 103.203 223.146 102.878 222.096C102.051 219.423 101.588 216.652 101.502 213.856C101.408 210.736 101.849 207.479 103.578 205.045C105.81 201.904 109.8 200.711 113.577 200.798C117.354 200.884 121.069 202.049 124.81 202.785C126.101 203.04 127.619 203.169 128.483 202.17C129.401 201.106 129.064 199.385 128.673 197.95C127.66 194.224 126.584 190.373 124.229 187.364C121.682 184.238 118.045 182.192 114.048 181.638C110.212 181.163 106.317 181.605 102.685 182.927C96.7664 184.79 91.5588 188.415 87.7582 193.315C83.8405 198.527 82.1476 205.076 83.0497 211.531C83.9311 217.153 86.913 222.233 91.3944 225.745L93.0053 224.498Z" fill="#2F2E41"/>
<path d="M355.591 491.474C350.075 489.074 345.193 485.426 341.33 480.818C337.467 476.21 334.728 470.768 333.331 464.921C331.934 459.075 331.915 452.984 333.278 447.129C334.64 441.275 337.346 435.817 341.181 431.186C336.734 434.429 333.029 438.581 330.311 443.365C327.593 448.149 325.924 453.456 325.416 458.933C324.907 464.41 325.571 469.933 327.362 475.135C329.154 480.336 332.032 485.098 335.806 489.103C339.58 493.109 344.164 496.266 349.253 498.366C354.342 500.467 359.82 501.461 365.323 501.285C370.826 501.108 376.229 499.764 381.172 497.342C386.116 494.92 390.487 491.475 393.996 487.236C388.523 491.233 382.097 493.727 375.359 494.471C368.621 495.214 361.805 494.181 355.591 491.474Z" fill="#3F3D56"/>
</g>
<defs>
<clipPath id="clip0">
<rect width="713" height="502" fill="white"/>
</clipPath>
</defs>
</svg>
