<svg width="164" height="165" viewBox="0 0 164 165" fill="none" xmlns="http://www.w3.org/2000/svg">
<path d="M163.102 35.5768C163.087 35.3364 163.04 35.0974 162.961 34.8705C162.931 34.7819 162.908 34.6973 162.871 34.6113C162.736 34.3119 162.55 34.0393 162.32 33.8057L129.32 0.805664C129.087 0.574707 128.813 0.388061 128.512 0.255127C128.43 0.217529 128.347 0.194702 128.262 0.165161C128.028 0.0845948 127.787 0.036255 127.541 0.0214844C127.494 0.0308838 127.444 0 127.387 0H44.8866C37.2972 0.00939943 31.146 6.1593 31.1366 13.75V33.9896C12.2317 42.3269 0.03125 61.0398 0.03125 81.7024C0.03125 102.365 12.2317 121.078 31.1366 129.415V151.25C31.146 158.841 37.2972 164.991 44.8866 165H149.387C156.977 164.991 163.129 158.841 163.137 151.25V35.75C163.137 35.6896 163.107 35.6372 163.102 35.5768ZM153.748 33H132.887C131.368 33 130.137 31.7687 130.137 30.25V9.38867L153.748 33ZM5.58899 81.7024C5.57288 69.2979 10.4928 57.3982 19.2638 48.6272C28.0348 39.8562 39.9358 34.9363 52.339 34.9524C53.902 34.9524 55.4529 35.0289 56.9836 35.178C78.2478 37.2794 95.3615 53.5673 98.5116 74.7012C98.8768 77.0175 99.0688 79.3579 99.0863 81.7024C99.1064 90.5096 96.6169 99.1396 91.9119 106.584C88.1803 112.532 83.1516 117.56 77.2018 121.289C62.7952 130.336 44.6113 130.844 29.7227 122.613C14.834 114.383 5.59167 98.714 5.58899 81.7024ZM84.2782 123.013C84.6542 122.721 85.0261 122.433 85.394 122.133C86.7516 121.04 88.0514 119.879 89.2908 118.654C90.5154 117.415 91.6769 116.116 92.7699 114.76C93.0693 114.392 93.358 114.018 93.6494 113.642C93.9824 113.207 94.3436 112.794 94.6619 112.351L118.105 135.823C119.658 137.36 120.532 139.455 120.532 141.64C120.532 143.826 119.658 145.919 118.105 147.458C114.859 150.596 109.709 150.596 106.462 147.458L82.9878 124.025C83.4309 123.703 83.8458 123.346 84.2782 123.013ZM149.387 159.5H44.8866C40.3306 159.5 36.6366 155.806 36.6366 151.25V131.562C36.8071 131.617 36.9857 131.654 37.1589 131.706C37.5994 131.84 38.0452 131.948 38.491 132.071C39.5195 132.346 40.5562 132.622 41.6035 132.827C42.1178 132.935 42.6321 133.034 43.1517 133.125C44.1991 133.309 45.2559 133.454 46.3167 133.576C46.7906 133.63 47.2579 133.697 47.7333 133.738C49.2573 133.868 50.7908 133.952 52.339 133.952C61.4296 133.959 70.3617 131.58 78.2424 127.051L102.557 151.341C105.969 155.076 111.158 156.636 116.063 155.401C120.969 154.167 124.802 150.338 126.04 145.433C127.279 140.528 125.724 135.338 121.991 131.923L97.6871 107.604C102.216 99.7238 104.597 90.7916 104.589 81.7024C104.589 79.9608 104.506 78.2327 104.337 76.5193C103.163 64.5042 97.8442 53.2732 89.2935 44.7533C79.514 34.9215 66.2072 29.4121 52.339 29.4524C50.7908 29.4524 49.2573 29.5383 47.7333 29.6672C47.2579 29.7089 46.7866 29.7747 46.314 29.8297C45.2559 29.9479 44.2045 30.0983 43.1571 30.2809C42.6348 30.3722 42.1138 30.4716 41.5955 30.5803C40.5615 30.7952 39.5356 31.0476 38.5178 31.3282C38.0613 31.4518 37.6047 31.5619 37.1428 31.6989C36.9723 31.7512 36.7991 31.7875 36.6285 31.8425V13.75C36.6285 9.19397 40.3225 5.5 44.8785 5.5H124.637V30.25C124.637 34.806 128.331 38.5 132.887 38.5H157.637V151.25C157.637 155.806 153.944 159.5 149.387 159.5Z" fill="white"/>
</svg>
