<svg width="33" height="33" viewBox="0 0 33 33" fill="none" xmlns="http://www.w3.org/2000/svg">
<g clip-path="url(#clip0)">
<path d="M16.8524 8.02246C12.3248 8.02246 8.64264 11.7031 8.64063 16.2274C8.64012 17.7778 9.07417 19.2877 9.8957 20.5941L10.0908 20.9045L9.26149 23.9326L12.3681 23.1178L12.6679 23.2956C13.928 24.0433 15.3727 24.4389 16.8456 24.4394H16.8488C21.3729 24.4394 25.055 20.7585 25.057 16.2339C25.0578 14.0413 24.2048 11.9798 22.6552 10.4289C21.1055 8.87798 19.0445 8.02322 16.8524 8.02246ZM21.6803 19.7552C21.4746 20.3312 20.4889 20.8572 20.0148 20.9282C19.5896 20.9916 19.0518 21.0181 18.4607 20.8305C18.1021 20.7167 17.6427 20.5649 17.0538 20.3109C14.5786 19.2423 12.962 16.7508 12.8386 16.5862C12.7153 16.4215 11.8311 15.2485 11.8311 14.0342C11.8311 12.8202 12.4685 12.2232 12.6946 11.9765C12.921 11.7295 13.1883 11.6678 13.3528 11.6678C13.5172 11.6678 13.6818 11.6693 13.8256 11.6764C13.9771 11.684 14.1806 11.6187 14.3807 12.0999C14.5864 12.5938 15.0799 13.8079 15.1416 13.9313C15.2033 14.0549 15.2443 14.1989 15.1622 14.3635C15.0799 14.5282 14.6917 15.0242 14.5454 15.2072C14.4364 15.3432 14.2931 15.4638 14.4371 15.7108C14.5809 15.9575 15.0764 16.7654 15.8098 17.4195C16.7524 18.2599 17.5475 18.5203 17.7942 18.6439C18.0407 18.7673 18.1847 18.7466 18.3287 18.5822C18.4725 18.4175 18.9456 17.8619 19.11 17.6149C19.2744 17.3679 19.439 17.4092 19.6651 17.4915C19.8915 17.5736 21.1045 18.1706 21.3512 18.2939C21.598 18.4175 21.7624 18.4792 21.8241 18.5822C21.886 18.6852 21.886 19.1789 21.6803 19.7552Z" fill="white"/>
<path d="M30.62 0H2.37998C1.06549 0 0 1.06549 0 2.37998V30.62C0 31.9345 1.06549 33 2.37998 33H30.62C31.9345 33 33 31.9345 33 30.62V2.37998C33 1.06549 31.9345 0 30.62 0V0ZM16.8497 26.1068C16.8495 26.1068 16.85 26.1068 16.8497 26.1068H16.8457C15.1928 26.106 13.5686 25.6916 12.1263 24.9051L6.8912 26.278L8.2923 21.162C7.42797 19.665 6.97327 17.9666 6.97403 16.2266C6.9763 10.7833 11.4064 6.35493 16.8497 6.35493C19.4913 6.35593 21.971 7.38416 23.8353 9.25003C25.6999 11.1161 26.7261 13.5966 26.7251 16.2344C26.7229 21.6779 22.2922 26.1068 16.8497 26.1068Z" fill="white"/>
</g>
<defs>
<clipPath id="clip0">
<rect width="33" height="33" fill="white"/>
</clipPath>
</defs>
</svg>
