<svg width="34" height="33" viewBox="0 0 34 33" fill="none" xmlns="http://www.w3.org/2000/svg">
<g clip-path="url(#clip0)">
<path d="M15.2461 19.5916L20.6133 16.5004L15.2461 13.4092V19.5916Z" fill="white"/>
<path d="M31.4208 0H3.18076C1.86627 0 0.800781 1.06549 0.800781 2.37998V30.62C0.800781 31.9345 1.86627 33 3.18076 33H31.4208C32.7353 33 33.8008 31.9345 33.8008 30.62V2.37998C33.8008 1.06549 32.7353 0 31.4208 0V0ZM27.6108 16.5169C27.6108 16.5169 27.6108 19.8631 27.1863 21.4767C26.9484 22.3599 26.252 23.0563 25.3688 23.294C23.7552 23.7188 17.3008 23.7188 17.3008 23.7188C17.3008 23.7188 10.8633 23.7188 9.23281 23.2771C8.3496 23.0395 7.65321 22.3428 7.41528 21.4596C6.99055 19.8631 6.99055 16.5 6.99055 16.5C6.99055 16.5 6.99055 13.154 7.41528 11.5404C7.65295 10.6572 8.36647 9.94366 9.23281 9.70599C10.8464 9.28125 17.3008 9.28125 17.3008 9.28125C17.3008 9.28125 23.7552 9.28125 25.3688 9.72285C26.252 9.96053 26.9484 10.6572 27.1863 11.5404C27.6279 13.154 27.6108 16.5169 27.6108 16.5169Z" fill="white"/>
</g>
<defs>
<clipPath id="clip0">
<rect width="33" height="33" fill="white" transform="translate(0.800781)"/>
</clipPath>
</defs>
</svg>
