<svg width="30" height="27" viewBox="0 0 30 27" fill="none" xmlns="http://www.w3.org/2000/svg">
<g clip-path="url(#clip0)" filter="url(#filter0_d)">
<path d="M25.0634 4.60749V17.4254H4.93359V4.60749C4.93359 4.06067 5.39819 3.61719 5.97156 3.61719H24.0255C24.5988 3.61719 25.0634 4.06067 25.0634 4.60749Z" fill="#E5F4FF"/>
<path d="M24.0264 3.61719H21.4297C22.0029 3.61719 22.4677 4.06067 22.4677 4.60765V17.4254H25.0644V4.60749C25.0644 4.06067 24.5998 3.61719 24.0264 3.61719V3.61719Z" fill="#C4DAEC"/>
<path d="M16.9081 16.4802C16.9081 16.8619 16.584 17.1712 16.1842 17.1712H13.8158C13.416 17.1712 13.0919 16.8619 13.0919 16.4802H4.10037C4.04498 16.4802 4 16.5232 4 16.576V17.4406C4 17.9469 4.43002 18.3573 4.96025 18.3573H25.0397C25.57 18.3573 26 17.9469 26 17.4406V16.576C26 16.523 25.955 16.4802 25.8996 16.4802H16.9081Z" fill="#628DB2"/>
<path d="M25.9002 16.4802H23.3286C23.384 16.4802 23.429 16.523 23.429 16.576V17.4406C23.429 17.9469 22.999 18.3573 22.4688 18.3573H25.0403C25.5706 18.3573 26.0006 17.9469 26.0006 17.4406V16.576C26.0006 16.5232 25.9556 16.4802 25.9002 16.4802Z" fill="#41739F"/>
<path d="M25.0634 4.60749V6.60348H4.93359V4.60749C4.93359 4.06067 5.39819 3.61719 5.97156 3.61719H24.0255C24.5988 3.61719 25.0634 4.06067 25.0634 4.60749Z" fill="#C4DAEC"/>
<path d="M24.0264 3.61719H21.4297C22.0029 3.61719 22.4677 4.06067 22.4677 4.60765V6.60348H25.0644V4.60765C25.0644 4.06067 24.5998 3.61719 24.0264 3.61719Z" fill="#A3C0D9"/>
<path d="M5.97156 3.61719H9.82834C9.37532 3.61719 9.00774 3.9679 9.00774 4.40049C9.00774 4.61646 8.91592 4.81257 8.76738 4.95404C8.61917 5.09599 8.41406 5.18363 8.1873 5.18363H4.93359V4.60749C4.93359 4.06067 5.39819 3.61719 5.97156 3.61719Z" fill="#83A7C5"/>
<path d="M25.0665 4.60749V5.18363H14.5121C14.0591 5.18363 13.6917 4.83292 13.6917 4.40049C13.6917 4.18436 13.5997 3.98825 13.4512 3.84678C13.303 3.70483 13.0979 3.61719 12.8711 3.61719H24.0285C24.6019 3.61719 25.0665 4.06067 25.0665 4.60749Z" fill="#83A7C5"/>
<path d="M24.0264 3.61719H21.4297C22.0029 3.61719 22.4677 4.06067 22.4677 4.60765V5.18363H25.0644V4.60765C25.0644 4.06067 24.5998 3.61719 24.0264 3.61719Z" fill="#628DB2"/>
<path d="M23.2598 14.9404H15.9756C15.8833 14.9404 15.8086 14.8691 15.8086 14.7811V8.1986C15.8086 8.11064 15.8833 8.03918 15.9756 8.03918H23.2598C23.3521 8.03918 23.4268 8.11064 23.4268 8.1986V14.7811C23.4268 14.8691 23.3521 14.9404 23.2598 14.9404Z" fill="#82AAFF"/>
<path d="M17.2227 13.785C17.2227 13.7769 17.2255 13.762 17.2312 13.7403L18.0248 11.256C18.0475 11.1882 18.0995 11.1358 18.1806 11.0991C18.2616 11.0625 18.3548 11.0442 18.46 11.0442C18.5651 11.0442 18.6584 11.0626 18.7395 11.0991C18.8206 11.1358 18.8724 11.1882 18.8952 11.256L19.693 13.7403C19.6987 13.7621 19.7016 13.7769 19.7016 13.785C19.7016 13.8557 19.6553 13.9167 19.5629 13.9683C19.4705 14.0199 19.3745 14.0457 19.2749 14.0457C19.1526 14.0457 19.08 14.0064 19.0574 13.9276L18.9122 13.4186H18.012L17.8669 13.9276C17.8442 14.0064 17.7715 14.0457 17.6493 14.0457C17.5498 14.0457 17.4538 14.0199 17.3613 13.9683C17.2688 13.9167 17.2227 13.8557 17.2227 13.785ZM18.1485 12.9298H18.7715L18.46 11.8384L18.1485 12.9298Z" fill="white"/>
<path d="M19.9492 13.8543V11.26C19.9492 11.2086 19.9762 11.1637 20.0303 11.1256C20.0843 11.0876 20.154 11.0687 20.2393 11.0687H20.9946C21.313 11.0687 21.5676 11.1461 21.7583 11.3009C21.9488 11.4555 22.0441 11.6985 22.0441 12.0299V13.0846C22.0441 13.4159 21.9488 13.6588 21.7583 13.8136C21.5676 13.9683 21.313 14.0457 20.9946 14.0457H20.2393C20.154 14.0457 20.0843 14.0268 20.0303 13.9887C19.9762 13.9507 19.9492 13.9059 19.9492 13.8543ZM20.6147 13.4919H20.9946C21.2505 13.4919 21.3786 13.3561 21.3786 13.0846V12.0297C21.3786 11.7583 21.2505 11.6226 20.9946 11.6226H20.6147V13.4919Z" fill="white"/>
<path d="M13.8574 8.70694H6.78867C6.58826 8.70694 6.42578 8.55185 6.42578 8.36055C6.42578 8.16925 6.58826 8.01416 6.78867 8.01416H13.8574C14.0578 8.01416 14.2202 8.16925 14.2202 8.36055C14.2202 8.55185 14.0578 8.70694 13.8574 8.70694Z" fill="#C4DAEC"/>
<path d="M13.8574 10.3484H6.78867C6.58826 10.3484 6.42578 10.1933 6.42578 10.002C6.42578 9.81067 6.58826 9.65558 6.78867 9.65558H13.8574C14.0578 9.65558 14.2202 9.81067 14.2202 10.002C14.2202 10.1933 14.0578 10.3484 13.8574 10.3484Z" fill="#C4DAEC"/>
<path d="M13.8574 11.9898H6.78867C6.58826 11.9898 6.42578 11.8347 6.42578 11.6434C6.42578 11.4521 6.58826 11.297 6.78867 11.297H13.8574C14.0578 11.297 14.2202 11.4521 14.2202 11.6434C14.2202 11.8347 14.0578 11.9898 13.8574 11.9898Z" fill="#C4DAEC"/>
<path d="M13.8574 13.631H6.78867C6.58826 13.631 6.42578 13.4759 6.42578 13.2846C6.42578 13.0935 6.58826 12.9384 6.78867 12.9384H13.8574C14.0578 12.9384 14.2202 13.0933 14.2202 13.2846C14.2202 13.4759 14.0578 13.631 13.8574 13.631Z" fill="#C4DAEC"/>
<path d="M11.3731 15.2725H6.78867C6.58826 15.2725 6.42578 15.1174 6.42578 14.9261C6.42578 14.735 6.58826 14.5797 6.78867 14.5797H11.3731C11.5735 14.5797 11.7359 14.7348 11.7359 14.9261C11.7359 15.1174 11.5735 15.2725 11.3731 15.2725Z" fill="#C4DAEC"/>
<path d="M22.288 9.51303L22.4199 9.3871C22.5616 9.25187 22.5616 9.03254 22.4199 8.89731C22.2781 8.76193 22.0485 8.76193 21.9066 8.89731L21.7747 9.02324L21.643 8.89731C21.5011 8.76193 21.2715 8.76193 21.1297 8.89731C20.988 9.03254 20.988 9.25187 21.1297 9.3871L21.2616 9.51303L21.1297 9.63896C20.988 9.77418 20.988 9.99352 21.1297 10.1287C21.2007 10.1964 21.2935 10.2302 21.3863 10.2302C21.4791 10.2302 21.572 10.1964 21.643 10.1287L21.7747 10.0028L21.9066 10.1287C21.9776 10.1964 22.0705 10.2302 22.1633 10.2302C22.2561 10.2302 22.3489 10.1964 22.4199 10.1287C22.5616 9.99352 22.5616 9.77418 22.4199 9.63896L22.288 9.51303Z" fill="white"/>
</g>
<defs>
<filter id="filter0_d" x="0" y="0.5" width="30" height="29" filterUnits="userSpaceOnUse" color-interpolation-filters="sRGB">
<feFlood flood-opacity="0" result="BackgroundImageFix"/>
<feColorMatrix in="SourceAlpha" type="matrix" values="0 0 0 0 0 0 0 0 0 0 0 0 0 0 0 0 0 0 127 0"/>
<feOffset dy="4"/>
<feGaussianBlur stdDeviation="2"/>
<feColorMatrix type="matrix" values="0 0 0 0 0 0 0 0 0 0 0 0 0 0 0 0 0 0 0.25 0"/>
<feBlend mode="normal" in2="BackgroundImageFix" result="effect1_dropShadow"/>
<feBlend mode="normal" in="SourceGraphic" in2="effect1_dropShadow" result="shape"/>
</filter>
<clipPath id="clip0">
<rect width="22" height="21" fill="white" transform="translate(4 0.5)"/>
</clipPath>
</defs>
</svg>
