<svg width="20" height="20" viewBox="0 0 20 20" fill="none" xmlns="http://www.w3.org/2000/svg">
<path fill-rule="evenodd" clip-rule="evenodd" d="M16.6526 14.8674C16.3896 15.1312 16.258 15.4985 16.2935 15.8692C16.373 16.7001 16.5562 17.5648 16.7915 18.3681C15.0479 17.9651 13.983 17.4976 13.499 17.2523C13.2242 17.1131 12.9077 17.0802 12.6102 17.16C11.7879 17.3805 10.9115 17.5 10 17.5C5.0055 17.5 1.25 13.9906 1.25 10C1.25 6.00943 5.0055 2.5 10 2.5C14.9945 2.5 18.75 6.00943 18.75 10C18.75 11.8351 17.9784 13.538 16.6526 14.8674ZM17.2689 19.7487C17.2773 19.7503 17.2857 19.752 17.2942 19.7537C17.409 19.7763 17.526 19.7986 17.6452 19.8204C17.8125 19.851 17.9842 19.8808 18.1603 19.9097C18.4091 19.9504 18.5995 19.6902 18.5013 19.458C18.4371 19.3064 18.3738 19.1474 18.3121 18.9826C18.273 18.8779 18.2344 18.7708 18.1968 18.6618C18.1951 18.6571 18.1935 18.6524 18.1919 18.6476C17.8822 17.748 17.63 16.7139 17.5378 15.7501C19.0712 14.2124 20 12.2011 20 10C20 5.16751 15.5228 1.25 10 1.25C4.47715 1.25 0 5.16751 0 10C0 14.8325 4.47715 18.75 10 18.75C11.0209 18.75 12.0062 18.6161 12.934 18.3674C13.5833 18.6964 14.9821 19.2954 17.2689 19.7487Z" fill="white"/>
<path d="M13.75 10C13.75 10.6904 14.3096 11.25 15 11.25C15.6904 11.25 16.25 10.6904 16.25 10C16.25 9.30964 15.6904 8.75 15 8.75C14.3096 8.75 13.75 9.30964 13.75 10Z" fill="white"/>
<path d="M8.75 10C8.75 10.6904 9.30964 11.25 10 11.25C10.6904 11.25 11.25 10.6904 11.25 10C11.25 9.30964 10.6904 8.75 10 8.75C9.30964 8.75 8.75 9.30964 8.75 10Z" fill="white"/>
<path d="M3.75 10C3.75 10.6904 4.30964 11.25 5 11.25C5.69036 11.25 6.25 10.6904 6.25 10C6.25 9.30964 5.69036 8.75 5 8.75C4.30964 8.75 3.75 9.30964 3.75 10Z" fill="white"/>
</svg>
