<svg width="198" height="244" viewBox="0 0 198 244" fill="none" xmlns="http://www.w3.org/2000/svg">
<path fill-rule="evenodd" clip-rule="evenodd" d="M87.5057 139.595C75.0075 124.932 66.5485 106.961 67.962 86.8246C72.0347 28.8055 152.836 41.569 168.553 70.852C184.27 100.135 182.403 174.414 162.089 179.648C153.988 181.735 136.731 176.622 119.167 166.04L130.192 244H65.0957L87.5057 139.595Z" fill="#B28B67"/>
<path fill-rule="evenodd" clip-rule="evenodd" d="M197.392 30.2572C196.044 25.521 192.418 21.4659 187.531 20.2629C186.347 19.9711 185.123 19.8532 183.904 19.9023C183.466 19.9198 183.344 20.0458 183.139 19.7401C182.988 19.5135 182.984 18.9598 182.922 18.6934C182.728 17.8652 182.485 17.0472 182.185 16.2505C181.163 13.533 179.445 11.128 177.373 9.10201C173.499 5.31182 168.265 2.696 162.826 2.22275C159.849 1.96388 156.895 2.44727 154.081 3.41512C152.624 3.91613 151.211 4.54 149.835 5.22974C149.421 5.43734 148.077 6.45415 147.661 6.38827C147.202 6.31563 146.279 5.17508 145.906 4.88878C141.291 1.34981 135.592 -0.0416078 129.844 0.000944731C123.356 0.0488384 117.109 0.372879 111.698 4.32617C110.553 5.16315 109.462 6.07954 108.423 7.04436C107.876 7.55232 107.346 8.07933 106.841 8.62824C106.536 8.9594 106.239 9.29804 105.954 9.64576C105.469 10.236 105.546 10.4299 104.868 10.0181C102.264 8.43667 99.2459 7.69707 96.2064 8.07043C94.4016 8.29227 92.6456 8.83388 90.9782 9.54677C90.4105 9.78944 89.0965 10.7575 88.4914 10.7669C87.8912 10.7762 86.5956 9.87882 85.9773 9.65074C82.6377 8.4185 79.0383 8.11476 75.5282 8.68415C71.9074 9.27169 68.3506 10.7156 65.2829 12.711C63.8074 13.6708 62.52 14.7343 61.486 16.1615C61.0395 16.7777 60.636 17.4295 60.1299 18.0008C59.8337 18.3354 59.247 18.6786 59.088 19.102C59.1832 18.8485 55.1283 17.286 54.7456 17.1861C52.7071 16.6539 50.6314 16.7618 48.6352 17.4184C44.8816 18.6532 41.6534 21.4221 39.0004 24.261C37.6377 25.7192 36.4453 27.331 35.433 29.0483C34.9479 29.8708 34.5043 30.7169 34.0984 31.5809C33.9018 31.9995 33.7714 32.5232 33.5123 32.9003C33.1783 33.3861 32.9539 33.3954 32.349 33.6073C29.277 34.683 26.4766 36.5039 24.344 38.9642C22.1869 41.4535 20.7872 44.5189 20.2004 47.747C20.1659 47.9371 20.1453 48.7252 20.0339 48.8281C19.8812 48.9698 19.2635 48.9071 19.0298 48.9345C18.2205 49.0294 17.417 49.1706 16.6241 49.3583C15.1626 49.704 13.74 50.2129 12.3944 50.8784C7.14863 53.4727 3.39732 58.3363 1.56137 63.809C-0.365065 69.5524 -0.330915 76.1323 1.97154 81.7685C2.34345 82.6788 2.78599 83.5625 3.30578 84.3984C3.62494 84.9115 3.72793 84.9127 3.5207 85.4511C3.28968 86.0501 2.8677 86.6321 2.59342 87.2173C1.69851 89.1272 1.07288 91.1528 0.67772 93.2217C0.029378 96.6154 -0.291936 100.182 0.347645 103.601C0.644638 105.189 1.1621 106.741 1.95151 108.155C2.354 108.877 2.82497 109.56 3.35673 110.193C3.63281 110.522 3.92604 110.835 4.23269 111.136C4.4081 111.307 4.63804 111.458 4.78716 111.649C5.15121 112.117 5.22774 111.733 5.03999 112.419C4.77751 113.379 4.18245 114.326 3.81805 115.26C3.44256 116.222 3.10319 117.198 2.79278 118.183C2.16411 120.179 1.63253 122.21 1.30013 124.276C0.661803 128.243 0.773915 132.47 2.65117 136.111C3.45382 137.668 4.60532 139.034 6.00195 140.097C6.68552 140.617 7.42594 141.065 8.20267 141.433C8.60176 141.623 9.11135 141.704 9.29338 142.09C9.48934 142.504 9.19843 143.328 9.13209 143.792C8.55491 147.827 8.26543 152.063 9.46538 156.017C10.5706 159.659 13.0039 162.875 16.1632 165.003C22.292 169.133 30.5535 168.9 36.9933 165.594C38.6719 164.732 40.2423 163.662 41.6433 162.4C45.2106 167.2 52.5513 167.048 57.7651 165.681C64.2607 163.977 69.4728 159.462 72.4758 153.53C76.582 158.527 85.1996 156.906 88.0471 151.485C88.7441 150.159 89.1575 148.697 89.3609 147.217C89.468 146.439 89.3997 145.654 89.4802 144.882C89.5828 143.899 90.2401 142.943 90.6179 141.992C91.3537 140.14 91.8106 138.227 91.8302 136.23C91.8404 135.187 91.7083 134.171 91.609 133.136C91.5198 132.205 91.7782 131.338 91.925 130.419C90.2591 130.693 88.2295 130.244 86.6599 129.761C85.1197 129.287 83.6771 128.039 82.59 126.9C80.0658 124.253 78.5238 120.784 77.4692 117.331C75.1543 109.753 76.1032 100.661 83.729 96.5016C87.2815 94.5642 97.9242 94.5705 102.155 95.5281C106.604 96.5349 111.648 106.347 111.896 107.269C112.05 107.84 111.972 108.547 112.497 108.927C113.65 109.763 115.551 108.312 116.402 107.596C117.869 106.36 118.916 104.715 119.822 103.048C121.798 99.4155 123.39 95.5204 124.515 91.5442C125.382 88.4786 125.936 85.3174 127.07 82.33C128.198 79.3574 129.976 76.7005 132.74 75.0165C135.748 73.1846 139.195 72.2198 142.496 71.0686C145.769 69.9277 148.985 68.5332 151.521 66.1124C152.079 65.58 152.621 65.0144 153.07 64.3877C153.424 63.8929 153.774 62.9457 154.314 62.632C155.154 62.144 156.379 63.4131 157.105 63.8738C160.686 66.1475 163.674 69.3184 166.084 72.7824C168.481 76.2276 170.447 79.5426 172.045 83.3896C173.231 86.2427 173.97 89.8967 176.055 92.235C176.986 93.279 183.904 93.9106 186.144 92.9991C188.385 92.0876 190.896 89.7208 191.648 88.2375C192.418 86.7194 192.602 85.0516 192.273 83.3896C192.08 82.4118 191.685 81.4984 191.469 80.538C191.287 79.7313 191.121 78.9688 190.728 78.2297C189.984 76.8292 188.712 75.8225 187.178 75.4016C188.774 73.9305 190.097 72.1705 191.012 70.2031C191.964 68.1592 192.77 65.6735 192.998 63.4302C193.184 61.6081 192.897 59.7202 191.899 58.1544C190.852 56.5117 188.998 55.4401 187.393 54.4154C189.844 52.4986 191.942 50.1675 193.667 47.5866C197.02 42.5675 199.095 36.2409 197.392 30.2572Z" fill="#282E36"/>
</svg>
