<svg width="22" height="22" viewBox="0 0 22 22" fill="none" xmlns="http://www.w3.org/2000/svg">
<path d="M6.04063 20.0119C5.03085 18.8644 4.0211 17.6711 3.37849 16.2482C2.73592 14.7335 2.55231 12.9894 2.87361 11.337C3.19492 9.68468 3.92927 8.1241 4.98497 6.79305C4.89319 7.94053 5.30628 9.13389 6.08655 10.006C5.62754 7.80284 6.36194 5.41608 7.83069 3.67194C9.29944 1.9278 11.319 0.780266 13.4303 0C12.3747 1.10157 12.237 2.84572 12.6501 4.31451C13.0632 5.78326 13.9353 7.06844 14.7155 8.39949C15.4958 9.73055 16.2302 11.1075 16.2761 12.6222C16.6892 11.8419 17.1482 11.0616 17.4236 10.1895C17.699 9.31746 17.8367 8.39949 17.6072 7.5274C18.4334 8.53719 18.8924 9.54694 19.1219 10.8321C19.3513 12.1173 19.3055 13.4484 19.1678 14.7335C18.9842 16.1564 18.617 17.6252 17.8367 18.8185C16.9188 20.2414 15.45 21.2511 13.8435 21.8019C10.9977 22.3068 8.19787 21.8938 6.04063 20.0119Z" fill="#F3705A"/>
<path d="M9.52861 21.7102C13.2923 23.179 17.0101 18.7268 14.9446 15.2843C14.9446 15.2384 14.8987 15.2384 14.8987 15.1926C15.0823 17.0744 14.6233 18.4514 13.7512 19.2317C14.2102 18.1301 13.8889 16.8449 13.3382 15.7433C12.7874 14.6877 12.0071 13.7238 11.4104 12.714C10.8137 11.6584 10.3547 10.465 10.6301 9.27161C9.52857 10.0978 8.7483 11.3371 8.42699 12.6681C8.10569 13.9992 8.2893 15.468 8.886 16.7072C8.19751 16.2023 7.69264 15.3762 7.64673 14.5041C6.91233 15.3762 6.45337 16.5236 6.49924 17.6711C6.49928 19.4612 7.92212 21.0676 9.52861 21.7102Z" fill="#FFD15C"/>
</svg>
