<svg width="17" height="21" viewBox="0 0 17 21" fill="none" xmlns="http://www.w3.org/2000/svg">
<path d="M13.9679 11.7337C13.2801 13.1276 12.3483 14.5163 11.3954 15.7631C10.4915 16.9386 9.52493 18.0646 8.5 19.1362C7.47505 18.0646 6.50852 16.9386 5.60463 15.7631C4.65175 14.5163 3.71988 13.1276 3.03213 11.7337C2.3365 10.3254 1.9375 9.00638 1.9375 7.875C1.9375 6.13452 2.6289 4.46532 3.85961 3.23461C5.09032 2.0039 6.75952 1.3125 8.5 1.3125C10.2405 1.3125 11.9097 2.0039 13.1404 3.23461C14.3711 4.46532 15.0625 6.13452 15.0625 7.875C15.0625 9.00638 14.6622 10.3254 13.9679 11.7337ZM8.5 21C8.5 21 16.375 13.5371 16.375 7.875C16.375 5.78642 15.5453 3.78338 14.0685 2.30653C12.5916 0.829685 10.5886 0 8.5 0C6.41142 0 4.40838 0.829685 2.93153 2.30653C1.45469 3.78338 0.625 5.78642 0.625 7.875C0.625 13.5371 8.5 21 8.5 21Z" fill="#282E36"/>
<path d="M8.5 10.5C7.80381 10.5 7.13613 10.2234 6.64384 9.73116C6.15156 9.23887 5.875 8.57119 5.875 7.875C5.875 7.17881 6.15156 6.51113 6.64384 6.01884C7.13613 5.52656 7.80381 5.25 8.5 5.25C9.19619 5.25 9.86387 5.52656 10.3562 6.01884C10.8484 6.51113 11.125 7.17881 11.125 7.875C11.125 8.57119 10.8484 9.23887 10.3562 9.73116C9.86387 10.2234 9.19619 10.5 8.5 10.5ZM8.5 11.8125C9.54429 11.8125 10.5458 11.3977 11.2842 10.6592C12.0227 9.92081 12.4375 8.91929 12.4375 7.875C12.4375 6.83071 12.0227 5.82919 11.2842 5.09077C10.5458 4.35234 9.54429 3.9375 8.5 3.9375C7.45571 3.9375 6.45419 4.35234 5.71577 5.09077C4.97734 5.82919 4.5625 6.83071 4.5625 7.875C4.5625 8.91929 4.97734 9.92081 5.71577 10.6592C6.45419 11.3977 7.45571 11.8125 8.5 11.8125Z" fill="#282E36"/>
</svg>
