<svg width="18" height="16" viewBox="0 0 18 16" fill="none" xmlns="http://www.w3.org/2000/svg">
<path d="M9.00034 15.5C8.46284 15.0233 7.85534 14.5275 7.21284 14H7.20451C4.94201 12.15 2.37784 10.0566 1.24534 7.54829C0.873276 6.74973 0.676098 5.8809 0.667002 4.99996C0.664517 3.7912 1.14932 2.63245 2.01185 1.7856C2.87438 0.938751 4.04183 0.475289 5.25034 0.49996C6.2342 0.501514 7.19687 0.785861 8.02368 1.31913C8.38699 1.55493 8.7157 1.84017 9.00034 2.16663C9.28658 1.84145 9.61538 1.55638 9.97784 1.31913C10.8043 0.785756 11.7667 0.501392 12.7503 0.49996C13.9589 0.475289 15.1263 0.938751 15.9888 1.7856C16.8514 2.63245 17.3362 3.7912 17.3337 4.99996C17.3252 5.88231 17.128 6.75262 16.7553 7.55246C15.6228 10.0608 13.0595 12.1533 10.797 14L10.7887 14.0066C10.1453 14.5308 9.53868 15.0266 9.00118 15.5066L9.00034 15.5ZM5.25034 2.16663C4.4741 2.15691 3.7254 2.454 3.16701 2.99329C2.629 3.52177 2.32831 4.24583 2.33361 4.99996C2.34312 5.64205 2.48853 6.27484 2.76034 6.85663C3.29494 7.93888 4.01627 8.91834 4.89118 9.74996C5.71701 10.5833 6.66701 11.39 7.48868 12.0683C7.71618 12.2558 7.94784 12.445 8.17951 12.6341L8.32534 12.7533C8.54784 12.935 8.77784 13.1233 9.00034 13.3083L9.01118 13.2983L9.01618 13.2941H9.02118L9.02868 13.2883H9.03284H9.03701L9.05201 13.2758L9.08618 13.2483L9.09201 13.2433L9.10118 13.2366H9.10618L9.11368 13.23L9.66701 12.7758L9.81201 12.6566C10.0462 12.4658 10.2778 12.2766 10.5053 12.0891C11.327 11.4108 12.2778 10.605 13.1037 9.76746C13.9787 8.93626 14.7001 7.95706 15.2345 6.87496C15.5112 6.28813 15.6587 5.64872 15.667 4.99996C15.6705 4.24816 15.3699 3.52687 14.8337 2.99996C14.2764 2.45823 13.5275 2.1587 12.7503 2.16663C11.8019 2.15857 10.8953 2.5561 10.2587 3.25913L9.00034 4.70913L7.74201 3.25913C7.1054 2.5561 6.19874 2.15857 5.25034 2.16663Z" fill="white"/>
</svg>
