<svg width="26" height="24" viewBox="0 0 26 24" fill="none" xmlns="http://www.w3.org/2000/svg">
<path d="M13 23.25C12.1938 22.535 11.2825 21.7913 10.3188 21H10.3063C6.91253 18.225 3.06628 15.085 1.36753 11.3225C0.809425 10.1247 0.513659 8.82141 0.500014 7.5C0.496287 5.68686 1.22349 3.94873 2.51729 2.67846C3.81109 1.40819 5.56226 0.712995 7.37503 0.750002C8.85081 0.752333 10.2948 1.17885 11.535 1.97875C12.08 2.33246 12.5731 2.76032 13 3.25C13.4294 2.76224 13.9226 2.33464 14.4663 1.97875C15.706 1.17869 17.1496 0.75215 18.625 0.750002C20.4378 0.712995 22.189 1.40819 23.4828 2.67846C24.7766 3.94873 25.5038 5.68686 25.5 7.5C25.4873 8.82352 25.1915 10.129 24.6325 11.3288C22.9338 15.0913 19.0888 18.23 15.695 21L15.6825 21.01C14.7175 21.7962 13.8075 22.54 13.0013 23.26L13 23.25ZM7.37503 3.25C6.21067 3.23543 5.08762 3.68106 4.25003 4.49C3.44301 5.28271 2.99197 6.36881 2.99992 7.5C3.01419 8.46313 3.23231 9.41232 3.64003 10.285C4.44192 11.9084 5.52392 13.3776 6.83628 14.625C8.07503 15.875 9.50003 17.085 10.7325 18.1025C11.0738 18.3837 11.4213 18.6675 11.7688 18.9513L11.9875 19.13C12.3213 19.4025 12.6663 19.685 13 19.9625L13.0163 19.9475L13.0238 19.9412H13.0313L13.0425 19.9325H13.0488H13.055L13.0775 19.9137L13.1288 19.8725L13.1375 19.865L13.1513 19.855H13.1588L13.17 19.845L14 19.1637L14.2175 18.985C14.5688 18.6987 14.9163 18.415 15.2575 18.1338C16.49 17.1163 17.9163 15.9075 19.155 14.6513C20.4676 13.4045 21.5496 11.9356 22.3513 10.3125C22.7664 9.43225 22.9876 8.47313 23.0001 7.5C23.0052 6.3723 22.5544 5.29037 21.75 4.5C20.9141 3.6874 19.7908 3.2381 18.625 3.25C17.2024 3.23791 15.8425 3.83421 14.8875 4.88875L13 7.06375L11.1125 4.88875C10.1576 3.83421 8.79763 3.23791 7.37503 3.25Z" fill="#D72323"/>
</svg>
