<svg width="19" height="20" viewBox="0 0 19 20" fill="none" xmlns="http://www.w3.org/2000/svg">
<g clip-path="url(#clip0)">
<path d="M9.5 19.5C14.7467 19.5 19 15.2467 19 10C19 4.75329 14.7467 0.5 9.5 0.5C4.25329 0.5 0 4.75329 0 10C0 15.2467 4.25329 19.5 9.5 19.5Z" fill="#3A4750"/>
<path d="M8.58394 10.9055C9.8887 12.2103 11.1675 12.7396 11.6281 12.279L12.2606 11.6466C12.4698 11.4374 12.7536 11.3199 13.0495 11.3199C13.3453 11.3199 13.6291 11.4374 13.8383 11.6466L15.2583 13.0666C15.4675 13.2758 15.585 13.5596 15.585 13.8555C15.585 14.1513 15.4675 14.4351 15.2583 14.6443L14.152 15.7506C13.1067 16.7959 10.015 15.4006 7.05191 12.4377C5.5711 10.9561 4.59987 9.56064 3.97213 8.24846C3.34439 6.93627 3.21718 5.85995 3.73953 5.3376L4.84583 4.23129C5.05506 4.02208 5.33882 3.90454 5.63471 3.90454C5.93059 3.90454 6.21435 4.02208 6.42358 4.23129L7.84353 5.6508C8.05275 5.86002 8.17028 6.14379 8.17028 6.43967C8.17028 6.73555 8.05275 7.01932 7.84353 7.22854L7.21059 7.86252C6.74999 8.32267 7.27917 9.60132 8.58394 10.9055Z" fill="#EEEFEE"/>
</g>
<defs>
<clipPath id="clip0">
<rect width="19" height="19" fill="white" transform="translate(0 0.5)"/>
</clipPath>
</defs>
</svg>
