<svg width="25" height="23" viewBox="0 0 25 23" fill="none" xmlns="http://www.w3.org/2000/svg">
<path d="M23.3234 7.78751L16.3809 6.77853L13.2773 0.486729C13.1926 0.314463 13.0531 0.17501 12.8809 0.0902445C12.4488 -0.123037 11.9238 0.0546977 11.7078 0.486729L8.60429 6.77853L1.66172 7.78751C1.47031 7.81485 1.29531 7.90509 1.16132 8.04181C0.999345 8.20829 0.910087 8.43228 0.913163 8.66454C0.916239 8.8968 1.0114 9.11834 1.17773 9.28048L6.20078 14.1777L5.01406 21.093C4.98623 21.2538 5.00403 21.4193 5.06544 21.5705C5.12686 21.7218 5.22942 21.8528 5.36151 21.9488C5.4936 22.0447 5.64993 22.1017 5.81277 22.1133C5.97561 22.1249 6.13844 22.0907 6.28281 22.0145L12.4926 18.7496L18.7023 22.0145C18.8719 22.1047 19.0687 22.1348 19.2574 22.102C19.7332 22.0199 20.0531 21.5688 19.9711 21.093L18.7844 14.1777L23.8074 9.28048C23.9441 9.14649 24.0344 8.97149 24.0617 8.78009C24.1355 8.30157 23.8019 7.8586 23.3234 7.78751Z" fill="white"/>
</svg>
