<svg width="37" height="35" viewBox="0 0 37 35" fill="none" xmlns="http://www.w3.org/2000/svg">
<path d="M35.1386 12.8278L24.4767 11.2783L19.7106 1.61587C19.5804 1.35132 19.3663 1.13716 19.1017 1.00698C18.4383 0.679444 17.632 0.952393 17.3003 1.61587L12.5342 11.2783L1.87234 12.8278C1.57839 12.8698 1.30964 13.0084 1.10388 13.2183C0.855125 13.474 0.71805 13.818 0.722774 14.1746C0.727499 14.5313 0.873636 14.8716 1.12907 15.1206L8.84304 22.6414L7.02058 33.2612C6.97784 33.5082 7.00518 33.7623 7.09949 33.9946C7.1938 34.2269 7.35132 34.4281 7.55417 34.5754C7.75702 34.7228 7.9971 34.8103 8.24717 34.8281C8.49725 34.846 8.74731 34.7934 8.96902 34.6763L18.5054 29.6625L28.0419 34.6763C28.3022 34.8149 28.6046 34.8611 28.8943 34.8107C29.625 34.6847 30.1163 33.9918 29.9903 33.2612L28.1678 22.6414L35.8818 15.1206C36.0918 14.9148 36.2304 14.646 36.2723 14.3521C36.3857 13.6172 35.8734 12.937 35.1386 12.8278Z" fill="#FFF500"/>
</svg>
