<svg width="36" height="34" viewBox="0 0 36 34" fill="none" xmlns="http://www.w3.org/2000/svg">
<path d="M23.5969 10.6443L23.7139 10.8788L23.9732 10.9161L34.7638 12.4671C34.764 12.4671 34.7643 12.4671 34.7645 12.4672C35.244 12.538 35.5603 12.9712 35.4901 13.4213L35.49 13.4213L35.4892 13.4269C35.4629 13.6089 35.3759 13.7776 35.2408 13.9086L27.4335 21.4367L27.2426 21.6208L27.2879 21.8821L29.1327 32.5134L29.1327 32.5138C29.2116 32.9664 28.9046 33.4056 28.4319 33.4862L28.4312 33.4864C28.2438 33.5186 28.0497 33.4884 27.886 33.4022L27.8837 33.401L18.2308 28.3817L18.0001 28.2617L17.7694 28.3817L8.11646 33.401L8.11569 33.4014C7.9735 33.4756 7.8127 33.5092 7.65163 33.4978C7.49058 33.4865 7.33645 33.4307 7.20669 33.3375C7.07697 33.2443 6.97698 33.1176 6.9173 32.9723C6.85764 32.8269 6.84043 32.6683 6.8674 32.5141L6.86752 32.5134L8.71225 21.8821L8.75759 21.6208L8.56667 21.4367L0.758443 13.9077L0.758411 13.9077C0.595312 13.7504 0.503058 13.5368 0.500075 13.314C0.497095 13.0915 0.583362 12.8759 0.741711 12.7146C0.87405 12.5813 1.04606 12.494 1.23368 12.4675L1.23487 12.4673L12.027 10.9161L12.2863 10.8788L12.4033 10.6443L17.2264 0.973878C17.2266 0.973517 17.2268 0.973157 17.2269 0.972797C17.4391 0.554659 17.9575 0.379679 18.3843 0.588048L18.3849 0.588329C18.5541 0.670708 18.6901 0.805702 18.7723 0.971013L18.7726 0.971447L23.5969 10.6443Z" stroke="#3A4750"/>
</svg>
