<svg width="33" height="33" viewBox="0 0 33 33" fill="none" xmlns="http://www.w3.org/2000/svg">
<path d="M33 19.5938C33 18.7674 32.6714 17.9974 32.1049 17.4295C32.747 16.7269 33.0742 15.785 32.9849 14.8046C32.824 13.057 31.2496 11.6875 29.3989 11.6875H20.9055C21.3263 10.4101 22 8.06851 22 6.18751C22 3.20513 19.4659 0.687531 17.875 0.687531C16.4477 0.687531 15.4261 1.49191 15.3835 1.52491C15.2198 1.65555 15.125 1.85355 15.125 2.06251V6.72511L11.1636 15.3038L11 15.3876V15.125C11 14.7455 10.6919 14.4374 10.3124 14.4374H3.43748C1.5414 14.4375 0 15.9789 0 17.875V28.875C0 30.7712 1.5414 32.3125 3.43748 32.3125H7.56248C9.04883 32.3125 10.3193 31.3637 10.7978 30.0396C11.9419 30.6281 13.4819 30.9375 14.4375 30.9375H27.0586C28.556 30.9375 29.8664 29.9282 30.1744 28.5368C30.3325 27.819 30.2404 27.0971 29.9269 26.4701C30.9416 25.96 31.625 24.9109 31.625 23.7188C31.625 23.232 31.5136 22.7659 31.3033 22.3451C32.318 21.8336 33 20.7859 33 19.5938ZM30.1001 21.2905C29.8348 21.3221 29.6106 21.5022 29.5254 21.7566C29.4415 22.011 29.5117 22.2901 29.7069 22.4744C30.0562 22.803 30.25 23.2457 30.25 23.7188C30.25 24.5864 29.5942 25.3151 28.7266 25.4155C28.4612 25.4471 28.237 25.6272 28.1518 25.8816C28.068 26.136 28.1381 26.4151 28.3333 26.5994C28.7857 27.0256 28.9672 27.6237 28.8311 28.2398C28.662 29.007 27.9167 29.5625 27.0587 29.5625H14.4375C13.321 29.5625 11.4482 29.0387 10.7992 28.3883C10.6026 28.193 10.3056 28.1353 10.0499 28.2398C9.79275 28.3457 9.62498 28.5973 9.62498 28.875C9.62498 30.0122 8.69963 30.9375 7.56248 30.9375H3.43748C2.30033 30.9375 1.37498 30.0122 1.37498 28.875V17.875C1.37498 16.7378 2.30033 15.8125 3.43748 15.8125H9.62498V16.5C9.62498 16.7379 9.74873 16.9592 9.95221 17.0858C10.153 17.2067 10.406 17.2191 10.6205 17.1146L11.9954 16.4271C12.1343 16.3583 12.2457 16.2428 12.3117 16.1012L16.4367 7.16372C16.478 7.07297 16.4999 6.97397 16.4999 6.87497V2.43511C16.786 2.27701 17.2824 2.06251 17.875 2.06251C18.6285 2.06251 20.625 3.93526 20.625 6.18751C20.625 8.60753 19.3078 12.0959 19.2954 12.1303C19.2157 12.3407 19.2431 12.5786 19.371 12.7655C19.5002 12.9512 19.712 13.0625 19.9375 13.0625H29.3989C30.5456 13.0625 31.5191 13.8834 31.6154 14.9312C31.6882 15.7149 31.3115 16.4602 30.6364 16.8768C30.426 17.006 30.3009 17.2398 30.3105 17.4887C30.3201 17.7375 30.4631 17.9603 30.6831 18.0744C31.2647 18.3701 31.625 18.953 31.625 19.5938C31.625 20.4614 30.9691 21.1901 30.1001 21.2905Z" fill="#3A4750"/>
</svg>
